<?xml version="1.0" encoding="utf-8" standalone="no"?>
<!DOCTYPE svg PUBLIC "-//W3C//DTD SVG 1.1//EN"
  "http://www.w3.org/Graphics/SVG/1.1/DTD/svg11.dtd">
<svg xmlns:xlink="http://www.w3.org/1999/xlink" width="568.8pt" height="424.8pt" viewBox="0 0 568.8 424.8" xmlns="http://www.w3.org/2000/svg" version="1.1">
 <metadata>
  <rdf:RDF xmlns:dc="http://purl.org/dc/elements/1.1/" xmlns:cc="http://creativecommons.org/ns#" xmlns:rdf="http://www.w3.org/1999/02/22-rdf-syntax-ns#">
   <cc:Work>
    <dc:type rdf:resource="http://purl.org/dc/dcmitype/StillImage"/>
    <dc:date>2026-01-06T21:57:19.855674</dc:date>
    <dc:format>image/svg+xml</dc:format>
    <dc:creator>
     <cc:Agent>
      <dc:title>Matplotlib v3.10.8, https://matplotlib.org/</dc:title>
     </cc:Agent>
    </dc:creator>
   </cc:Work>
  </rdf:RDF>
 </metadata>
 <defs>
  <style type="text/css">*{stroke-linejoin: round; stroke-linecap: butt}</style>
 </defs>
 <g id="figure_1">
  <g id="patch_1">
   <path d="M 0 424.8 
L 568.8 424.8 
L 568.8 0 
L 0 0 
z
" style="fill: #ffffff"/>
  </g>
  <g id="axes_1">
   <g id="patch_2">
    <path d="M 118.08 175.464 
L 284.4 175.464 
Q 289.944 175.464 289.944 171.36 
L 289.944 48.24 
Q 289.944 44.136 284.4 44.136 
L 118.08 44.136 
Q 112.536 44.136 112.536 48.24 
L 112.536 171.36 
Q 112.536 175.464 118.08 175.464 
z
" clip-path="url(#p6b1cb2b08c)" style="fill: #e8f5e9; stroke: #2e7d32; stroke-width: 3; stroke-linejoin: miter"/>
   </g>
   <g id="patch_3">
    <path d="M 284.4 175.464 
L 450.72 175.464 
Q 456.264 175.464 456.264 171.36 
L 456.264 48.24 
Q 456.264 44.136 450.72 44.136 
L 284.4 44.136 
Q 278.856 44.136 278.856 48.24 
L 278.856 171.36 
Q 278.856 175.464 284.4 175.464 
z
" clip-path="url(#p6b1cb2b08c)" style="fill: #ffebee; stroke: #c62828; stroke-width: 3; stroke-linejoin: miter"/>
   </g>
   <g id="patch_4">
    <path d="M 118.08 298.584 
L 284.4 298.584 
Q 289.944 298.584 289.944 294.48 
L 289.944 171.36 
Q 289.944 167.256 284.4 167.256 
L 118.08 167.256 
Q 112.536 167.256 112.536 171.36 
L 112.536 294.48 
Q 112.536 298.584 118.08 298.584 
z
" clip-path="url(#p6b1cb2b08c)" style="fill: #fff3e0; stroke: #ef6c00; stroke-width: 3; stroke-linejoin: miter"/>
   </g>
   <g id="patch_5">
    <path d="M 284.4 298.584 
L 450.72 298.584 
Q 456.264 298.584 456.264 294.48 
L 456.264 171.36 
Q 456.264 167.256 450.72 167.256 
L 284.4 167.256 
Q 278.856 167.256 278.856 171.36 
L 278.856 294.48 
Q 278.856 298.584 284.4 298.584 
z
" clip-path="url(#p6b1cb2b08c)" style="fill: #e3f2fd; stroke: #1565c0; stroke-width: 3; stroke-linejoin: miter"/>
   </g>
   <g id="text_1">
    <!-- TN -->
    <g style="fill: #2e7d32" transform="translate(189.0875 93.695) scale(0.16 -0.16)">
     <defs>
      <path id="DejaVuSans-Bold-54" d="M 31 4666 
L 4331 4666 
L 4331 3756 
L 2784 3756 
L 2784 0 
L 1581 0 
L 1581 3756 
L 31 3756 
L 31 4666 
z
" transform="scale(0.015625)"/>
      <path id="DejaVuSans-Bold-4e" d="M 588 4666 
L 1931 4666 
L 3628 1466 
L 3628 4666 
L 4769 4666 
L 4769 0 
L 3425 0 
L 1728 3200 
L 1728 0 
L 588 0 
L 588 4666 
z
" transform="scale(0.015625)"/>
     </defs>
     <use xlink:href="#DejaVuSans-Bold-54"/>
     <use xlink:href="#DejaVuSans-Bold-4e" transform="translate(68.212891 0)"/>
    </g>
   </g>
   <g id="text_2">
    <!-- True Negative -->
    <g style="fill: #262626" transform="translate(170.057812 112.283437) scale(0.09 -0.09)">
     <defs>
      <path id="DejaVuSans-54" d="M -19 4666 
L 3928 4666 
L 3928 4134 
L 2272 4134 
L 2272 0 
L 1638 0 
L 1638 4134 
L -19 4134 
L -19 4666 
z
" transform="scale(0.015625)"/>
      <path id="DejaVuSans-72" d="M 2631 2963 
Q 2534 3019 2420 3045 
Q 2306 3072 2169 3072 
Q 1681 3072 1420 2755 
Q 1159 2438 1159 1844 
L 1159 0 
L 581 0 
L 581 3500 
L 1159 3500 
L 1159 2956 
Q 1341 3275 1631 3429 
Q 1922 3584 2338 3584 
Q 2397 3584 2469 3576 
Q 2541 3569 2628 3553 
L 2631 2963 
z
" transform="scale(0.015625)"/>
      <path id="DejaVuSans-75" d="M 544 1381 
L 544 3500 
L 1119 3500 
L 1119 1403 
Q 1119 906 1312 657 
Q 1506 409 1894 409 
Q 2359 409 2629 706 
Q 2900 1003 2900 1516 
L 2900 3500 
L 3475 3500 
L 3475 0 
L 2900 0 
L 2900 538 
Q 2691 219 2414 64 
Q 2138 -91 1772 -91 
Q 1169 -91 856 284 
Q 544 659 544 1381 
z
M 1991 3584 
L 1991 3584 
z
" transform="scale(0.015625)"/>
      <path id="DejaVuSans-65" d="M 3597 1894 
L 3597 1613 
L 953 1613 
Q 991 1019 1311 708 
Q 1631 397 2203 397 
Q 2534 397 2845 478 
Q 3156 559 3463 722 
L 3463 178 
Q 3153 47 2828 -22 
Q 2503 -91 2169 -91 
Q 1331 -91 842 396 
Q 353 884 353 1716 
Q 353 2575 817 3079 
Q 1281 3584 2069 3584 
Q 2775 3584 3186 3129 
Q 3597 2675 3597 1894 
z
M 3022 2063 
Q 3016 2534 2758 2815 
Q 2500 3097 2075 3097 
Q 1594 3097 1305 2825 
Q 1016 2553 972 2059 
L 3022 2063 
z
" transform="scale(0.015625)"/>
      <path id="DejaVuSans-20" transform="scale(0.015625)"/>
      <path id="DejaVuSans-4e" d="M 628 4666 
L 1478 4666 
L 3547 763 
L 3547 4666 
L 4159 4666 
L 4159 0 
L 3309 0 
L 1241 3903 
L 1241 0 
L 628 0 
L 628 4666 
z
" transform="scale(0.015625)"/>
      <path id="DejaVuSans-67" d="M 2906 1791 
Q 2906 2416 2648 2759 
Q 2391 3103 1925 3103 
Q 1463 3103 1205 2759 
Q 947 2416 947 1791 
Q 947 1169 1205 825 
Q 1463 481 1925 481 
Q 2391 481 2648 825 
Q 2906 1169 2906 1791 
z
M 3481 434 
Q 3481 -459 3084 -895 
Q 2688 -1331 1869 -1331 
Q 1566 -1331 1297 -1286 
Q 1028 -1241 775 -1147 
L 775 -588 
Q 1028 -725 1275 -790 
Q 1522 -856 1778 -856 
Q 2344 -856 2625 -561 
Q 2906 -266 2906 331 
L 2906 616 
Q 2728 306 2450 153 
Q 2172 0 1784 0 
Q 1141 0 747 490 
Q 353 981 353 1791 
Q 353 2603 747 3093 
Q 1141 3584 1784 3584 
Q 2172 3584 2450 3431 
Q 2728 3278 2906 2969 
L 2906 3500 
L 3481 3500 
L 3481 434 
z
" transform="scale(0.015625)"/>
      <path id="DejaVuSans-61" d="M 2194 1759 
Q 1497 1759 1228 1600 
Q 959 1441 959 1056 
Q 959 750 1161 570 
Q 1363 391 1709 391 
Q 2188 391 2477 730 
Q 2766 1069 2766 1631 
L 2766 1759 
L 2194 1759 
z
M 3341 1997 
L 3341 0 
L 2766 0 
L 2766 531 
Q 2569 213 2275 61 
Q 1981 -91 1556 -91 
Q 1019 -91 701 211 
Q 384 513 384 1019 
Q 384 1609 779 1909 
Q 1175 2209 1959 2209 
L 2766 2209 
L 2766 2266 
Q 2766 2663 2505 2880 
Q 2244 3097 1772 3097 
Q 1472 3097 1187 3025 
Q 903 2953 641 2809 
L 641 3341 
Q 956 3463 1253 3523 
Q 1550 3584 1831 3584 
Q 2591 3584 2966 3190 
Q 3341 2797 3341 1997 
z
" transform="scale(0.015625)"/>
      <path id="DejaVuSans-74" d="M 1172 4494 
L 1172 3500 
L 2356 3500 
L 2356 3053 
L 1172 3053 
L 1172 1153 
Q 1172 725 1289 603 
Q 1406 481 1766 481 
L 2356 481 
L 2356 0 
L 1766 0 
Q 1100 0 847 248 
Q 594 497 594 1153 
L 594 3053 
L 172 3053 
L 172 3500 
L 594 3500 
L 594 4494 
L 1172 4494 
z
" transform="scale(0.015625)"/>
      <path id="DejaVuSans-69" d="M 603 3500 
L 1178 3500 
L 1178 0 
L 603 0 
L 603 3500 
z
M 603 4863 
L 1178 4863 
L 1178 4134 
L 603 4134 
L 603 4863 
z
" transform="scale(0.015625)"/>
      <path id="DejaVuSans-76" d="M 191 3500 
L 800 3500 
L 1894 563 
L 2988 3500 
L 3597 3500 
L 2284 0 
L 1503 0 
L 191 3500 
z
" transform="scale(0.015625)"/>
     </defs>
     <use xlink:href="#DejaVuSans-54"/>
     <use xlink:href="#DejaVuSans-72" transform="translate(46.333984 0)"/>
     <use xlink:href="#DejaVuSans-75" transform="translate(87.447266 0)"/>
     <use xlink:href="#DejaVuSans-65" transform="translate(150.826172 0)"/>
     <use xlink:href="#DejaVuSans-20" transform="translate(212.349609 0)"/>
     <use xlink:href="#DejaVuSans-4e" transform="translate(244.136719 0)"/>
     <use xlink:href="#DejaVuSans-65" transform="translate(318.941406 0)"/>
     <use xlink:href="#DejaVuSans-67" transform="translate(380.464844 0)"/>
     <use xlink:href="#DejaVuSans-61" transform="translate(443.941406 0)"/>
     <use xlink:href="#DejaVuSans-74" transform="translate(505.220703 0)"/>
     <use xlink:href="#DejaVuSans-69" transform="translate(544.429688 0)"/>
     <use xlink:href="#DejaVuSans-76" transform="translate(572.212891 0)"/>
     <use xlink:href="#DejaVuSans-65" transform="translate(631.392578 0)"/>
    </g>
   </g>
   <g id="text_3">
    <!-- Правильно -->
    <g style="fill: #262626" transform="translate(178.3075 132.5275) scale(0.08 -0.08)">
     <defs>
      <path id="DejaVuSans-Oblique-41f" d="M 4638 4666 
L 3731 0 
L 3100 0 
L 3903 4134 
L 1609 4134 
L 806 0 
L 175 0 
L 1081 4666 
L 4638 4666 
z
" transform="scale(0.015625)"/>
      <path id="DejaVuSans-Oblique-440" d="M 3175 2156 
Q 3175 2616 2975 2859 
Q 2775 3103 2400 3103 
Q 2144 3103 1911 2972 
Q 1678 2841 1497 2591 
Q 1319 2344 1212 1994 
Q 1106 1644 1106 1300 
Q 1106 863 1306 627 
Q 1506 391 1875 391 
Q 2147 391 2380 519 
Q 2613 647 2778 891 
Q 2956 1147 3065 1494 
Q 3175 1841 3175 2156 
z
M 1394 2969 
Q 1625 3272 1939 3428 
Q 2253 3584 2638 3584 
Q 3175 3584 3472 3232 
Q 3769 2881 3769 2247 
Q 3769 1728 3584 1258 
Q 3400 788 3053 416 
Q 2822 169 2531 39 
Q 2241 -91 1919 -91 
Q 1547 -91 1294 64 
Q 1041 219 916 525 
L 556 -1331 
L -19 -1331 
L 922 3500 
L 1497 3500 
L 1394 2969 
z
" transform="scale(0.015625)"/>
      <path id="DejaVuSans-Oblique-430" d="M 3438 1997 
L 3047 0 
L 2472 0 
L 2578 531 
Q 2325 219 2001 64 
Q 1678 -91 1281 -91 
Q 834 -91 548 182 
Q 263 456 263 884 
Q 263 1497 752 1853 
Q 1241 2209 2100 2209 
L 2900 2209 
L 2931 2363 
Q 2938 2388 2941 2417 
Q 2944 2447 2944 2509 
Q 2944 2788 2717 2942 
Q 2491 3097 2081 3097 
Q 1800 3097 1504 3025 
Q 1209 2953 897 2809 
L 997 3341 
Q 1322 3463 1633 3523 
Q 1944 3584 2234 3584 
Q 2853 3584 3176 3315 
Q 3500 3047 3500 2534 
Q 3500 2431 3484 2292 
Q 3469 2153 3438 1997 
z
M 2816 1759 
L 2241 1759 
Q 1534 1759 1195 1570 
Q 856 1381 856 984 
Q 856 709 1029 553 
Q 1203 397 1509 397 
Q 1978 397 2328 733 
Q 2678 1069 2791 1631 
L 2816 1759 
z
" transform="scale(0.015625)"/>
      <path id="DejaVuSans-Oblique-432" d="M 2656 1159 
Q 2656 1613 1947 1613 
L 1128 1613 
L 906 459 
L 1725 459 
Q 2528 459 2644 1038 
Q 2656 1103 2656 1159 
z
M 1406 3041 
L 1219 2072 
L 1975 2072 
Q 2300 2072 2559 2217 
Q 2819 2363 2819 2647 
Q 2819 2819 2653 2930 
Q 2488 3041 2163 3041 
L 1406 3041 
z
M 922 3500 
L 2291 3500 
Q 2906 3500 3162 3300 
Q 3419 3100 3419 2809 
Q 3419 2725 3400 2634 
Q 3275 1981 2588 1888 
Q 2969 1813 3141 1575 
Q 3263 1406 3263 1175 
Q 3263 1084 3244 981 
Q 3153 513 2742 256 
Q 2331 0 1663 0 
L 241 0 
L 922 3500 
z
" transform="scale(0.015625)"/>
      <path id="DejaVuSans-Oblique-438" d="M 3919 3500 
L 3238 0 
L 2666 0 
L 3213 2809 
L 978 0 
L 241 0 
L 922 3500 
L 1494 3500 
L 947 697 
L 3178 3500 
L 3919 3500 
z
" transform="scale(0.015625)"/>
      <path id="DejaVuSans-Oblique-43b" d="M 1534 3500 
L 3900 3500 
L 3219 0 
L 2644 0 
L 3234 3041 
L 2019 3041 
L 1953 2694 
Q 1691 1344 1284 717 
Q 878 91 -103 0 
L -9 478 
Q 575 566 828 959 
Q 1147 1513 1422 2928 
L 1534 3500 
z
" transform="scale(0.015625)"/>
      <path id="DejaVuSans-Oblique-44c" d="M 2656 1159 
Q 2656 1613 1950 1613 
L 1131 1613 
L 909 459 
L 1728 459 
Q 2528 459 2644 1038 
Q 2656 1103 2656 1159 
z
M 2066 2072 
Q 3281 2072 3281 1278 
Q 3281 1166 3256 1038 
Q 3053 0 1663 0 
L 241 0 
L 922 3500 
L 1500 3500 
L 1222 2072 
L 2066 2072 
z
" transform="scale(0.015625)"/>
      <path id="DejaVuSans-Oblique-43d" d="M 922 3500 
L 1500 3500 
L 1222 2072 
L 3088 2072 
L 3366 3500 
L 3944 3500 
L 3263 0 
L 2684 0 
L 2997 1613 
L 1131 1613 
L 819 0 
L 241 0 
L 922 3500 
z
" transform="scale(0.015625)"/>
      <path id="DejaVuSans-Oblique-43e" d="M 1625 -91 
Q 1009 -91 651 289 
Q 294 669 294 1325 
Q 294 1706 417 2101 
Q 541 2497 738 2766 
Q 1047 3184 1428 3384 
Q 1809 3584 2291 3584 
Q 2888 3584 3255 3212 
Q 3622 2841 3622 2241 
Q 3622 1825 3500 1412 
Q 3378 1000 3181 728 
Q 2875 309 2494 109 
Q 2113 -91 1625 -91 
z
M 891 1344 
Q 891 869 1089 633 
Q 1288 397 1691 397 
Q 2269 397 2648 901 
Q 3028 1406 3028 2181 
Q 3028 2634 2825 2865 
Q 2622 3097 2228 3097 
Q 1903 3097 1650 2945 
Q 1397 2794 1197 2484 
Q 1050 2253 970 1956 
Q 891 1659 891 1344 
z
" transform="scale(0.015625)"/>
     </defs>
     <use xlink:href="#DejaVuSans-Oblique-41f"/>
     <use xlink:href="#DejaVuSans-Oblique-440" transform="translate(75.195312 0)"/>
     <use xlink:href="#DejaVuSans-Oblique-430" transform="translate(138.671875 0)"/>
     <use xlink:href="#DejaVuSans-Oblique-432" transform="translate(199.951172 0)"/>
     <use xlink:href="#DejaVuSans-Oblique-438" transform="translate(258.886719 0)"/>
     <use xlink:href="#DejaVuSans-Oblique-43b" transform="translate(323.876953 0)"/>
     <use xlink:href="#DejaVuSans-Oblique-44c" transform="translate(387.792969 0)"/>
     <use xlink:href="#DejaVuSans-Oblique-43d" transform="translate(446.728516 0)"/>
     <use xlink:href="#DejaVuSans-Oblique-43e" transform="translate(512.109375 0)"/>
    </g>
   </g>
   <g id="text_4">
    <!-- FP -->
    <g style="fill: #c62828" transform="translate(356.23125 93.695) scale(0.16 -0.16)">
     <defs>
      <path id="DejaVuSans-Bold-46" d="M 588 4666 
L 3834 4666 
L 3834 3756 
L 1791 3756 
L 1791 2888 
L 3713 2888 
L 3713 1978 
L 1791 1978 
L 1791 0 
L 588 0 
L 588 4666 
z
" transform="scale(0.015625)"/>
      <path id="DejaVuSans-Bold-50" d="M 588 4666 
L 2584 4666 
Q 3475 4666 3951 4270 
Q 4428 3875 4428 3144 
Q 4428 2409 3951 2014 
Q 3475 1619 2584 1619 
L 1791 1619 
L 1791 0 
L 588 0 
L 588 4666 
z
M 1791 3794 
L 1791 2491 
L 2456 2491 
Q 2806 2491 2997 2661 
Q 3188 2831 3188 3144 
Q 3188 3456 2997 3625 
Q 2806 3794 2456 3794 
L 1791 3794 
z
" transform="scale(0.015625)"/>
     </defs>
     <use xlink:href="#DejaVuSans-Bold-46"/>
     <use xlink:href="#DejaVuSans-Bold-50" transform="translate(68.310547 0)"/>
    </g>
   </g>
   <g id="text_5">
    <!-- False Positive -->
    <g style="fill: #262626" transform="translate(337.486641 112.283437) scale(0.09 -0.09)">
     <defs>
      <path id="DejaVuSans-46" d="M 628 4666 
L 3309 4666 
L 3309 4134 
L 1259 4134 
L 1259 2759 
L 3109 2759 
L 3109 2228 
L 1259 2228 
L 1259 0 
L 628 0 
L 628 4666 
z
" transform="scale(0.015625)"/>
      <path id="DejaVuSans-6c" d="M 603 4863 
L 1178 4863 
L 1178 0 
L 603 0 
L 603 4863 
z
" transform="scale(0.015625)"/>
      <path id="DejaVuSans-73" d="M 2834 3397 
L 2834 2853 
Q 2591 2978 2328 3040 
Q 2066 3103 1784 3103 
Q 1356 3103 1142 2972 
Q 928 2841 928 2578 
Q 928 2378 1081 2264 
Q 1234 2150 1697 2047 
L 1894 2003 
Q 2506 1872 2764 1633 
Q 3022 1394 3022 966 
Q 3022 478 2636 193 
Q 2250 -91 1575 -91 
Q 1294 -91 989 -36 
Q 684 19 347 128 
L 347 722 
Q 666 556 975 473 
Q 1284 391 1588 391 
Q 1994 391 2212 530 
Q 2431 669 2431 922 
Q 2431 1156 2273 1281 
Q 2116 1406 1581 1522 
L 1381 1569 
Q 847 1681 609 1914 
Q 372 2147 372 2553 
Q 372 3047 722 3315 
Q 1072 3584 1716 3584 
Q 2034 3584 2315 3537 
Q 2597 3491 2834 3397 
z
" transform="scale(0.015625)"/>
      <path id="DejaVuSans-50" d="M 1259 4147 
L 1259 2394 
L 2053 2394 
Q 2494 2394 2734 2622 
Q 2975 2850 2975 3272 
Q 2975 3691 2734 3919 
Q 2494 4147 2053 4147 
L 1259 4147 
z
M 628 4666 
L 2053 4666 
Q 2838 4666 3239 4311 
Q 3641 3956 3641 3272 
Q 3641 2581 3239 2228 
Q 2838 1875 2053 1875 
L 1259 1875 
L 1259 0 
L 628 0 
L 628 4666 
z
" transform="scale(0.015625)"/>
      <path id="DejaVuSans-6f" d="M 1959 3097 
Q 1497 3097 1228 2736 
Q 959 2375 959 1747 
Q 959 1119 1226 758 
Q 1494 397 1959 397 
Q 2419 397 2687 759 
Q 2956 1122 2956 1747 
Q 2956 2369 2687 2733 
Q 2419 3097 1959 3097 
z
M 1959 3584 
Q 2709 3584 3137 3096 
Q 3566 2609 3566 1747 
Q 3566 888 3137 398 
Q 2709 -91 1959 -91 
Q 1206 -91 779 398 
Q 353 888 353 1747 
Q 353 2609 779 3096 
Q 1206 3584 1959 3584 
z
" transform="scale(0.015625)"/>
     </defs>
     <use xlink:href="#DejaVuSans-46"/>
     <use xlink:href="#DejaVuSans-61" transform="translate(48.394531 0)"/>
     <use xlink:href="#DejaVuSans-6c" transform="translate(109.673828 0)"/>
     <use xlink:href="#DejaVuSans-73" transform="translate(137.457031 0)"/>
     <use xlink:href="#DejaVuSans-65" transform="translate(189.556641 0)"/>
     <use xlink:href="#DejaVuSans-20" transform="translate(251.080078 0)"/>
     <use xlink:href="#DejaVuSans-50" transform="translate(282.867188 0)"/>
     <use xlink:href="#DejaVuSans-6f" transform="translate(339.544922 0)"/>
     <use xlink:href="#DejaVuSans-73" transform="translate(400.726562 0)"/>
     <use xlink:href="#DejaVuSans-69" transform="translate(452.826172 0)"/>
     <use xlink:href="#DejaVuSans-74" transform="translate(480.609375 0)"/>
     <use xlink:href="#DejaVuSans-69" transform="translate(519.818359 0)"/>
     <use xlink:href="#DejaVuSans-76" transform="translate(547.601562 0)"/>
     <use xlink:href="#DejaVuSans-65" transform="translate(606.78125 0)"/>
    </g>
   </g>
   <g id="text_6">
    <!-- Ошибка I рода -->
    <g style="fill: #262626" transform="translate(336.89125 132.595625) scale(0.08 -0.08)">
     <defs>
      <path id="DejaVuSans-Oblique-41e" d="M 2919 4238 
Q 2400 4238 2003 3986 
Q 1606 3734 1313 3219 
Q 1125 2891 1026 2522 
Q 928 2153 928 1778 
Q 928 1128 1239 775 
Q 1550 422 2119 422 
Q 2631 422 3032 676 
Q 3434 931 3719 1434 
Q 3909 1772 4009 2142 
Q 4109 2513 4109 2881 
Q 4109 3528 3796 3883 
Q 3484 4238 2919 4238 
z
M 2100 -91 
Q 1241 -91 748 418 
Q 256 928 256 1813 
Q 256 2319 448 2847 
Q 641 3375 978 3788 
Q 1375 4272 1862 4511 
Q 2350 4750 2938 4750 
Q 3794 4750 4287 4245 
Q 4781 3741 4781 2869 
Q 4781 2331 4593 1812 
Q 4406 1294 4056 872 
Q 3656 384 3173 146 
Q 2691 -91 2100 -91 
z
" transform="scale(0.015625)"/>
      <path id="DejaVuSans-Oblique-448" d="M 2966 459 
L 4447 459 
L 5038 3500 
L 5616 3500 
L 4934 0 
L 241 0 
L 922 3500 
L 1500 3500 
L 909 459 
L 2388 459 
L 2978 3500 
L 3556 3500 
L 2966 459 
z
" transform="scale(0.015625)"/>
      <path id="DejaVuSans-Oblique-431" d="M 2772 398 
Q 2250 -91 1498 -91 
Q 747 -91 425 384 
Q 203 709 203 1225 
Q 203 1466 250 1747 
L 369 2463 
Q 425 2834 450 2963 
Q 550 3463 800 3831 
Q 1197 4409 1739 4659 
Q 2281 4909 3106 4916 
Q 3488 4919 3666 4972 
L 3738 4516 
Q 3572 4453 3431 4450 
L 2641 4397 
Q 2241 4369 1975 4231 
Q 1284 3866 1131 3388 
L 1075 3213 
Q 1553 3584 2258 3584 
Q 2963 3584 3294 3097 
Q 3519 2772 3519 2278 
Q 3519 2034 3463 1747 
Q 3294 888 2772 398 
z
M 2775 2731 
Q 2578 3097 2117 3097 
Q 1656 3097 1317 2736 
Q 978 2375 856 1747 
Q 809 1506 809 1243 
Q 809 981 931 756 
Q 1128 397 1590 397 
Q 2053 397 2392 759 
Q 2731 1122 2853 1747 
Q 2900 1984 2900 2245 
Q 2900 2506 2775 2731 
z
" transform="scale(0.015625)"/>
      <path id="DejaVuSans-Oblique-43a" d="M 922 3500 
L 1494 3500 
L 1175 1856 
L 3116 3500 
L 3822 3500 
L 2222 2147 
L 3313 0 
L 2669 0 
L 1772 1766 
L 1034 1141 
L 813 0 
L 241 0 
L 922 3500 
z
" transform="scale(0.015625)"/>
      <path id="DejaVuSans-Oblique-20" transform="scale(0.015625)"/>
      <path id="DejaVuSans-Oblique-49" d="M 1081 4666 
L 1716 4666 
L 806 0 
L 172 0 
L 1081 4666 
z
" transform="scale(0.015625)"/>
      <path id="DejaVuSans-Oblique-434" d="M 1219 459 
L 2888 459 
L 3391 3041 
L 2181 3041 
L 2097 2603 
Q 1844 1316 1344 628 
L 1219 459 
z
M 384 459 
Q 694 584 872 850 
Q 1306 1509 1563 2838 
L 1691 3500 
L 4056 3500 
L 3466 459 
L 3925 459 
L 3666 -884 
L 3206 -884 
L 3378 0 
L 541 0 
L 369 -884 
L -91 -884 
L 169 459 
L 384 459 
z
" transform="scale(0.015625)"/>
     </defs>
     <use xlink:href="#DejaVuSans-Oblique-41e"/>
     <use xlink:href="#DejaVuSans-Oblique-448" transform="translate(78.710938 0)"/>
     <use xlink:href="#DejaVuSans-Oblique-438" transform="translate(170.214844 0)"/>
     <use xlink:href="#DejaVuSans-Oblique-431" transform="translate(235.205078 0)"/>
     <use xlink:href="#DejaVuSans-Oblique-43a" transform="translate(296.875 0)"/>
     <use xlink:href="#DejaVuSans-Oblique-430" transform="translate(357.275391 0)"/>
     <use xlink:href="#DejaVuSans-Oblique-20" transform="translate(418.554688 0)"/>
     <use xlink:href="#DejaVuSans-Oblique-49" transform="translate(450.341797 0)"/>
     <use xlink:href="#DejaVuSans-Oblique-20" transform="translate(479.833984 0)"/>
     <use xlink:href="#DejaVuSans-Oblique-440" transform="translate(511.621094 0)"/>
     <use xlink:href="#DejaVuSans-Oblique-43e" transform="translate(575.097656 0)"/>
     <use xlink:href="#DejaVuSans-Oblique-434" transform="translate(636.279297 0)"/>
     <use xlink:href="#DejaVuSans-Oblique-430" transform="translate(705.419922 0)"/>
    </g>
   </g>
   <g id="text_7">
    <!-- FN -->
    <g style="fill: #ef6c00" transform="translate(189.08 216.815) scale(0.16 -0.16)">
     <use xlink:href="#DejaVuSans-Bold-46"/>
     <use xlink:href="#DejaVuSans-Bold-4e" transform="translate(68.310547 0)"/>
    </g>
   </g>
   <g id="text_8">
    <!-- False Negative -->
    <g style="fill: #262626" transform="translate(168.314766 235.403437) scale(0.09 -0.09)">
     <use xlink:href="#DejaVuSans-46"/>
     <use xlink:href="#DejaVuSans-61" transform="translate(48.394531 0)"/>
     <use xlink:href="#DejaVuSans-6c" transform="translate(109.673828 0)"/>
     <use xlink:href="#DejaVuSans-73" transform="translate(137.457031 0)"/>
     <use xlink:href="#DejaVuSans-65" transform="translate(189.556641 0)"/>
     <use xlink:href="#DejaVuSans-20" transform="translate(251.080078 0)"/>
     <use xlink:href="#DejaVuSans-4e" transform="translate(282.867188 0)"/>
     <use xlink:href="#DejaVuSans-65" transform="translate(357.671875 0)"/>
     <use xlink:href="#DejaVuSans-67" transform="translate(419.195312 0)"/>
     <use xlink:href="#DejaVuSans-61" transform="translate(482.671875 0)"/>
     <use xlink:href="#DejaVuSans-74" transform="translate(543.951172 0)"/>
     <use xlink:href="#DejaVuSans-69" transform="translate(583.160156 0)"/>
     <use xlink:href="#DejaVuSans-76" transform="translate(610.943359 0)"/>
     <use xlink:href="#DejaVuSans-65" transform="translate(670.123047 0)"/>
    </g>
   </g>
   <g id="text_9">
    <!-- Ошибка II рода -->
    <g style="fill: #262626" transform="translate(169.39125 255.715625) scale(0.08 -0.08)">
     <use xlink:href="#DejaVuSans-Oblique-41e"/>
     <use xlink:href="#DejaVuSans-Oblique-448" transform="translate(78.710938 0)"/>
     <use xlink:href="#DejaVuSans-Oblique-438" transform="translate(170.214844 0)"/>
     <use xlink:href="#DejaVuSans-Oblique-431" transform="translate(235.205078 0)"/>
     <use xlink:href="#DejaVuSans-Oblique-43a" transform="translate(296.875 0)"/>
     <use xlink:href="#DejaVuSans-Oblique-430" transform="translate(357.275391 0)"/>
     <use xlink:href="#DejaVuSans-Oblique-20" transform="translate(418.554688 0)"/>
     <use xlink:href="#DejaVuSans-Oblique-49" transform="translate(450.341797 0)"/>
     <use xlink:href="#DejaVuSans-Oblique-49" transform="translate(479.833984 0)"/>
     <use xlink:href="#DejaVuSans-Oblique-20" transform="translate(509.326172 0)"/>
     <use xlink:href="#DejaVuSans-Oblique-440" transform="translate(541.113281 0)"/>
     <use xlink:href="#DejaVuSans-Oblique-43e" transform="translate(604.589844 0)"/>
     <use xlink:href="#DejaVuSans-Oblique-434" transform="translate(665.771484 0)"/>
     <use xlink:href="#DejaVuSans-Oblique-430" transform="translate(734.912109 0)"/>
    </g>
   </g>
   <g id="text_10">
    <!-- TP -->
    <g style="fill: #1565c0" transform="translate(356.23875 216.815) scale(0.16 -0.16)">
     <use xlink:href="#DejaVuSans-Bold-54"/>
     <use xlink:href="#DejaVuSans-Bold-50" transform="translate(68.212891 0)"/>
    </g>
   </g>
   <g id="text_11">
    <!-- True Positive -->
    <g style="fill: #262626" transform="translate(339.229687 235.403437) scale(0.09 -0.09)">
     <use xlink:href="#DejaVuSans-54"/>
     <use xlink:href="#DejaVuSans-72" transform="translate(46.333984 0)"/>
     <use xlink:href="#DejaVuSans-75" transform="translate(87.447266 0)"/>
     <use xlink:href="#DejaVuSans-65" transform="translate(150.826172 0)"/>
     <use xlink:href="#DejaVuSans-20" transform="translate(212.349609 0)"/>
     <use xlink:href="#DejaVuSans-50" transform="translate(244.136719 0)"/>
     <use xlink:href="#DejaVuSans-6f" transform="translate(300.814453 0)"/>
     <use xlink:href="#DejaVuSans-73" transform="translate(361.996094 0)"/>
     <use xlink:href="#DejaVuSans-69" transform="translate(414.095703 0)"/>
     <use xlink:href="#DejaVuSans-74" transform="translate(441.878906 0)"/>
     <use xlink:href="#DejaVuSans-69" transform="translate(481.087891 0)"/>
     <use xlink:href="#DejaVuSans-76" transform="translate(508.871094 0)"/>
     <use xlink:href="#DejaVuSans-65" transform="translate(568.050781 0)"/>
    </g>
   </g>
   <g id="text_12">
    <!-- Правильно -->
    <g style="fill: #262626" transform="translate(344.6275 255.6475) scale(0.08 -0.08)">
     <use xlink:href="#DejaVuSans-Oblique-41f"/>
     <use xlink:href="#DejaVuSans-Oblique-440" transform="translate(75.195312 0)"/>
     <use xlink:href="#DejaVuSans-Oblique-430" transform="translate(138.671875 0)"/>
     <use xlink:href="#DejaVuSans-Oblique-432" transform="translate(199.951172 0)"/>
     <use xlink:href="#DejaVuSans-Oblique-438" transform="translate(258.886719 0)"/>
     <use xlink:href="#DejaVuSans-Oblique-43b" transform="translate(323.876953 0)"/>
     <use xlink:href="#DejaVuSans-Oblique-44c" transform="translate(387.792969 0)"/>
     <use xlink:href="#DejaVuSans-Oblique-43d" transform="translate(446.728516 0)"/>
     <use xlink:href="#DejaVuSans-Oblique-43e" transform="translate(512.109375 0)"/>
    </g>
   </g>
   <g id="text_13">
    <!-- Матрица Ошибок (Confusion Matrix) -->
    <g style="fill: #262626" transform="translate(137.660312 52.331719) scale(0.14 -0.14)">
     <defs>
      <path id="DejaVuSans-Bold-41c" d="M 588 4666 
L 2119 4666 
L 3181 2169 
L 4250 4666 
L 5778 4666 
L 5778 0 
L 4641 0 
L 4641 3413 
L 3566 897 
L 2803 897 
L 1728 3413 
L 1728 0 
L 588 0 
L 588 4666 
z
" transform="scale(0.015625)"/>
      <path id="DejaVuSans-Bold-430" d="M 2106 1575 
Q 1756 1575 1579 1456 
Q 1403 1338 1403 1106 
Q 1403 894 1545 773 
Q 1688 653 1941 653 
Q 2256 653 2472 879 
Q 2688 1106 2688 1447 
L 2688 1575 
L 2106 1575 
z
M 3816 1997 
L 3816 0 
L 2688 0 
L 2688 519 
Q 2463 200 2181 54 
Q 1900 -91 1497 -91 
Q 953 -91 614 226 
Q 275 544 275 1050 
Q 275 1666 698 1953 
Q 1122 2241 2028 2241 
L 2688 2241 
L 2688 2328 
Q 2688 2594 2478 2717 
Q 2269 2841 1825 2841 
Q 1466 2841 1156 2769 
Q 847 2697 581 2553 
L 581 3406 
Q 941 3494 1303 3539 
Q 1666 3584 2028 3584 
Q 2975 3584 3395 3211 
Q 3816 2838 3816 1997 
z
" transform="scale(0.015625)"/>
      <path id="DejaVuSans-Bold-442" d="M 25 3500 
L 3681 3500 
L 3681 2809 
L 2413 2809 
L 2413 0 
L 1297 0 
L 1297 2809 
L 25 2809 
L 25 3500 
z
" transform="scale(0.015625)"/>
      <path id="DejaVuSans-Bold-440" d="M 1656 506 
L 1656 -1331 
L 538 -1331 
L 538 3500 
L 1656 3500 
L 1656 2988 
Q 1888 3294 2169 3439 
Q 2450 3584 2816 3584 
Q 3463 3584 3878 3070 
Q 4294 2556 4294 1747 
Q 4294 938 3878 423 
Q 3463 -91 2816 -91 
Q 2450 -91 2169 54 
Q 1888 200 1656 506 
z
M 2400 2772 
Q 2041 2772 1848 2508 
Q 1656 2244 1656 1747 
Q 1656 1250 1848 986 
Q 2041 722 2400 722 
Q 2759 722 2948 984 
Q 3138 1247 3138 1747 
Q 3138 2247 2948 2509 
Q 2759 2772 2400 2772 
z
" transform="scale(0.015625)"/>
      <path id="DejaVuSans-Bold-438" d="M 3947 3500 
L 3947 0 
L 2828 0 
L 2828 1863 
L 1700 0 
L 538 0 
L 538 3500 
L 1656 3500 
L 1656 1638 
L 2784 3500 
L 3947 3500 
z
" transform="scale(0.015625)"/>
      <path id="DejaVuSans-Bold-446" d="M 3666 -884 
L 3666 0 
L 538 0 
L 538 3500 
L 1656 3500 
L 1656 800 
L 2766 800 
L 2766 3500 
L 3884 3500 
L 3884 800 
L 4466 800 
L 4466 -884 
L 3666 -884 
z
" transform="scale(0.015625)"/>
      <path id="DejaVuSans-Bold-20" transform="scale(0.015625)"/>
      <path id="DejaVuSans-Bold-41e" d="M 2719 3878 
Q 2169 3878 1866 3472 
Q 1563 3066 1563 2328 
Q 1563 1594 1866 1187 
Q 2169 781 2719 781 
Q 3272 781 3575 1187 
Q 3878 1594 3878 2328 
Q 3878 3066 3575 3472 
Q 3272 3878 2719 3878 
z
M 2719 4750 
Q 3844 4750 4481 4106 
Q 5119 3463 5119 2328 
Q 5119 1197 4481 553 
Q 3844 -91 2719 -91 
Q 1597 -91 958 553 
Q 319 1197 319 2328 
Q 319 3463 958 4106 
Q 1597 4750 2719 4750 
z
" transform="scale(0.015625)"/>
      <path id="DejaVuSans-Bold-448" d="M 3938 800 
L 5100 800 
L 5100 3500 
L 6219 3500 
L 6219 0 
L 538 0 
L 538 3500 
L 1656 3500 
L 1656 800 
L 2819 800 
L 2819 3500 
L 3938 3500 
L 3938 800 
z
" transform="scale(0.015625)"/>
      <path id="DejaVuSans-Bold-431" d="M 344 1941 
L 322 2463 
Q 275 2672 275 2881 
Q 275 3494 456 3894 
Q 791 4631 1238 4781 
Q 1606 4909 3141 5031 
Q 3297 5044 3475 5072 
L 3725 4378 
Q 3488 4316 2269 4209 
Q 1734 4163 1516 4013 
Q 1153 3766 1125 3300 
Q 1584 3584 2275 3584 
Q 3178 3584 3686 3096 
Q 4194 2609 4194 1747 
Q 4194 884 3687 396 
Q 3181 -91 2275 -91 
Q 1369 -91 858 396 
Q 347 884 347 1747 
Q 347 1866 344 1941 
z
M 2272 2784 
Q 1903 2784 1708 2517 
Q 1513 2250 1513 1747 
Q 1513 1244 1708 976 
Q 1903 709 2272 709 
Q 2641 709 2834 976 
Q 3028 1244 3028 1747 
Q 3028 2250 2834 2517 
Q 2641 2784 2272 2784 
z
" transform="scale(0.015625)"/>
      <path id="DejaVuSans-Bold-43e" d="M 2203 2784 
Q 1831 2784 1636 2517 
Q 1441 2250 1441 1747 
Q 1441 1244 1636 976 
Q 1831 709 2203 709 
Q 2569 709 2762 976 
Q 2956 1244 2956 1747 
Q 2956 2250 2762 2517 
Q 2569 2784 2203 2784 
z
M 2203 3584 
Q 3106 3584 3614 3096 
Q 4122 2609 4122 1747 
Q 4122 884 3614 396 
Q 3106 -91 2203 -91 
Q 1297 -91 786 396 
Q 275 884 275 1747 
Q 275 2609 786 3096 
Q 1297 3584 2203 3584 
z
" transform="scale(0.015625)"/>
      <path id="DejaVuSans-Bold-43a" d="M 538 3500 
L 1656 3500 
L 1656 2316 
L 2903 3500 
L 4128 3500 
L 2634 2078 
L 4250 0 
L 3094 0 
L 1972 1447 
L 1656 1147 
L 1656 0 
L 538 0 
L 538 3500 
z
" transform="scale(0.015625)"/>
      <path id="DejaVuSans-Bold-28" d="M 2413 -844 
L 1484 -844 
Q 1006 -72 778 623 
Q 550 1319 550 2003 
Q 550 2688 779 3389 
Q 1009 4091 1484 4856 
L 2413 4856 
Q 2013 4116 1813 3408 
Q 1613 2700 1613 2009 
Q 1613 1319 1811 609 
Q 2009 -100 2413 -844 
z
" transform="scale(0.015625)"/>
      <path id="DejaVuSans-Bold-43" d="M 4288 256 
Q 3956 84 3597 -3 
Q 3238 -91 2847 -91 
Q 1681 -91 1000 561 
Q 319 1213 319 2328 
Q 319 3447 1000 4098 
Q 1681 4750 2847 4750 
Q 3238 4750 3597 4662 
Q 3956 4575 4288 4403 
L 4288 3438 
Q 3953 3666 3628 3772 
Q 3303 3878 2944 3878 
Q 2300 3878 1931 3465 
Q 1563 3053 1563 2328 
Q 1563 1606 1931 1193 
Q 2300 781 2944 781 
Q 3303 781 3628 887 
Q 3953 994 4288 1222 
L 4288 256 
z
" transform="scale(0.015625)"/>
      <path id="DejaVuSans-Bold-6f" d="M 2203 2784 
Q 1831 2784 1636 2517 
Q 1441 2250 1441 1747 
Q 1441 1244 1636 976 
Q 1831 709 2203 709 
Q 2569 709 2762 976 
Q 2956 1244 2956 1747 
Q 2956 2250 2762 2517 
Q 2569 2784 2203 2784 
z
M 2203 3584 
Q 3106 3584 3614 3096 
Q 4122 2609 4122 1747 
Q 4122 884 3614 396 
Q 3106 -91 2203 -91 
Q 1297 -91 786 396 
Q 275 884 275 1747 
Q 275 2609 786 3096 
Q 1297 3584 2203 3584 
z
" transform="scale(0.015625)"/>
      <path id="DejaVuSans-Bold-6e" d="M 4056 2131 
L 4056 0 
L 2931 0 
L 2931 347 
L 2931 1631 
Q 2931 2084 2911 2256 
Q 2891 2428 2841 2509 
Q 2775 2619 2662 2680 
Q 2550 2741 2406 2741 
Q 2056 2741 1856 2470 
Q 1656 2200 1656 1722 
L 1656 0 
L 538 0 
L 538 3500 
L 1656 3500 
L 1656 2988 
Q 1909 3294 2193 3439 
Q 2478 3584 2822 3584 
Q 3428 3584 3742 3212 
Q 4056 2841 4056 2131 
z
" transform="scale(0.015625)"/>
      <path id="DejaVuSans-Bold-66" d="M 2841 4863 
L 2841 4128 
L 2222 4128 
Q 1984 4128 1890 4042 
Q 1797 3956 1797 3744 
L 1797 3500 
L 2753 3500 
L 2753 2700 
L 1797 2700 
L 1797 0 
L 678 0 
L 678 2700 
L 122 2700 
L 122 3500 
L 678 3500 
L 678 3744 
Q 678 4316 997 4589 
Q 1316 4863 1984 4863 
L 2841 4863 
z
" transform="scale(0.015625)"/>
      <path id="DejaVuSans-Bold-75" d="M 500 1363 
L 500 3500 
L 1625 3500 
L 1625 3150 
Q 1625 2866 1622 2436 
Q 1619 2006 1619 1863 
Q 1619 1441 1641 1255 
Q 1663 1069 1716 984 
Q 1784 875 1895 815 
Q 2006 756 2150 756 
Q 2500 756 2700 1025 
Q 2900 1294 2900 1772 
L 2900 3500 
L 4019 3500 
L 4019 0 
L 2900 0 
L 2900 506 
Q 2647 200 2364 54 
Q 2081 -91 1741 -91 
Q 1134 -91 817 281 
Q 500 653 500 1363 
z
" transform="scale(0.015625)"/>
      <path id="DejaVuSans-Bold-73" d="M 3272 3391 
L 3272 2541 
Q 2913 2691 2578 2766 
Q 2244 2841 1947 2841 
Q 1628 2841 1473 2761 
Q 1319 2681 1319 2516 
Q 1319 2381 1436 2309 
Q 1553 2238 1856 2203 
L 2053 2175 
Q 2913 2066 3209 1816 
Q 3506 1566 3506 1031 
Q 3506 472 3093 190 
Q 2681 -91 1863 -91 
Q 1516 -91 1145 -36 
Q 775 19 384 128 
L 384 978 
Q 719 816 1070 734 
Q 1422 653 1784 653 
Q 2113 653 2278 743 
Q 2444 834 2444 1013 
Q 2444 1163 2330 1236 
Q 2216 1309 1875 1350 
L 1678 1375 
Q 931 1469 631 1722 
Q 331 1975 331 2491 
Q 331 3047 712 3315 
Q 1094 3584 1881 3584 
Q 2191 3584 2531 3537 
Q 2872 3491 3272 3391 
z
" transform="scale(0.015625)"/>
      <path id="DejaVuSans-Bold-69" d="M 538 3500 
L 1656 3500 
L 1656 0 
L 538 0 
L 538 3500 
z
M 538 4863 
L 1656 4863 
L 1656 3950 
L 538 3950 
L 538 4863 
z
" transform="scale(0.015625)"/>
      <path id="DejaVuSans-Bold-4d" d="M 588 4666 
L 2119 4666 
L 3181 2169 
L 4250 4666 
L 5778 4666 
L 5778 0 
L 4641 0 
L 4641 3413 
L 3566 897 
L 2803 897 
L 1728 3413 
L 1728 0 
L 588 0 
L 588 4666 
z
" transform="scale(0.015625)"/>
      <path id="DejaVuSans-Bold-61" d="M 2106 1575 
Q 1756 1575 1579 1456 
Q 1403 1338 1403 1106 
Q 1403 894 1545 773 
Q 1688 653 1941 653 
Q 2256 653 2472 879 
Q 2688 1106 2688 1447 
L 2688 1575 
L 2106 1575 
z
M 3816 1997 
L 3816 0 
L 2688 0 
L 2688 519 
Q 2463 200 2181 54 
Q 1900 -91 1497 -91 
Q 953 -91 614 226 
Q 275 544 275 1050 
Q 275 1666 698 1953 
Q 1122 2241 2028 2241 
L 2688 2241 
L 2688 2328 
Q 2688 2594 2478 2717 
Q 2269 2841 1825 2841 
Q 1466 2841 1156 2769 
Q 847 2697 581 2553 
L 581 3406 
Q 941 3494 1303 3539 
Q 1666 3584 2028 3584 
Q 2975 3584 3395 3211 
Q 3816 2838 3816 1997 
z
" transform="scale(0.015625)"/>
      <path id="DejaVuSans-Bold-74" d="M 1759 4494 
L 1759 3500 
L 2913 3500 
L 2913 2700 
L 1759 2700 
L 1759 1216 
Q 1759 972 1856 886 
Q 1953 800 2241 800 
L 2816 800 
L 2816 0 
L 1856 0 
Q 1194 0 917 276 
Q 641 553 641 1216 
L 641 2700 
L 84 2700 
L 84 3500 
L 641 3500 
L 641 4494 
L 1759 4494 
z
" transform="scale(0.015625)"/>
      <path id="DejaVuSans-Bold-72" d="M 3138 2547 
Q 2991 2616 2845 2648 
Q 2700 2681 2553 2681 
Q 2122 2681 1889 2404 
Q 1656 2128 1656 1613 
L 1656 0 
L 538 0 
L 538 3500 
L 1656 3500 
L 1656 2925 
Q 1872 3269 2151 3426 
Q 2431 3584 2822 3584 
Q 2878 3584 2943 3579 
Q 3009 3575 3134 3559 
L 3138 2547 
z
" transform="scale(0.015625)"/>
      <path id="DejaVuSans-Bold-78" d="M 1422 1791 
L 159 3500 
L 1344 3500 
L 2059 2463 
L 2784 3500 
L 3969 3500 
L 2706 1797 
L 4031 0 
L 2847 0 
L 2059 1106 
L 1281 0 
L 97 0 
L 1422 1791 
z
" transform="scale(0.015625)"/>
      <path id="DejaVuSans-Bold-29" d="M 513 -844 
Q 913 -100 1113 609 
Q 1313 1319 1313 2009 
Q 1313 2700 1113 3408 
Q 913 4116 513 4856 
L 1441 4856 
Q 1916 4091 2145 3389 
Q 2375 2688 2375 2003 
Q 2375 1319 2147 623 
Q 1919 -72 1441 -844 
L 513 -844 
z
" transform="scale(0.015625)"/>
     </defs>
     <use xlink:href="#DejaVuSans-Bold-41c"/>
     <use xlink:href="#DejaVuSans-Bold-430" transform="translate(99.511719 0)"/>
     <use xlink:href="#DejaVuSans-Bold-442" transform="translate(166.992188 0)"/>
     <use xlink:href="#DejaVuSans-Bold-440" transform="translate(224.951172 0)"/>
     <use xlink:href="#DejaVuSans-Bold-438" transform="translate(296.533203 0)"/>
     <use xlink:href="#DejaVuSans-Bold-446" transform="translate(366.601562 0)"/>
     <use xlink:href="#DejaVuSans-Bold-430" transform="translate(440.722656 0)"/>
     <use xlink:href="#DejaVuSans-Bold-20" transform="translate(508.203125 0)"/>
     <use xlink:href="#DejaVuSans-Bold-41e" transform="translate(543.017578 0)"/>
     <use xlink:href="#DejaVuSans-Bold-448" transform="translate(628.027344 0)"/>
     <use xlink:href="#DejaVuSans-Bold-438" transform="translate(734.228516 0)"/>
     <use xlink:href="#DejaVuSans-Bold-431" transform="translate(804.296875 0)"/>
     <use xlink:href="#DejaVuSans-Bold-43e" transform="translate(874.121094 0)"/>
     <use xlink:href="#DejaVuSans-Bold-43a" transform="translate(942.822266 0)"/>
     <use xlink:href="#DejaVuSans-Bold-20" transform="translate(1010.693359 0)"/>
     <use xlink:href="#DejaVuSans-Bold-28" transform="translate(1045.507812 0)"/>
     <use xlink:href="#DejaVuSans-Bold-43" transform="translate(1091.210938 0)"/>
     <use xlink:href="#DejaVuSans-Bold-6f" transform="translate(1164.599609 0)"/>
     <use xlink:href="#DejaVuSans-Bold-6e" transform="translate(1233.300781 0)"/>
     <use xlink:href="#DejaVuSans-Bold-66" transform="translate(1304.492188 0)"/>
     <use xlink:href="#DejaVuSans-Bold-75" transform="translate(1347.998047 0)"/>
     <use xlink:href="#DejaVuSans-Bold-73" transform="translate(1419.189453 0)"/>
     <use xlink:href="#DejaVuSans-Bold-69" transform="translate(1478.710938 0)"/>
     <use xlink:href="#DejaVuSans-Bold-6f" transform="translate(1512.988281 0)"/>
     <use xlink:href="#DejaVuSans-Bold-6e" transform="translate(1581.689453 0)"/>
     <use xlink:href="#DejaVuSans-Bold-20" transform="translate(1652.880859 0)"/>
     <use xlink:href="#DejaVuSans-Bold-4d" transform="translate(1687.695312 0)"/>
     <use xlink:href="#DejaVuSans-Bold-61" transform="translate(1787.207031 0)"/>
     <use xlink:href="#DejaVuSans-Bold-74" transform="translate(1854.6875 0)"/>
     <use xlink:href="#DejaVuSans-Bold-72" transform="translate(1902.490234 0)"/>
     <use xlink:href="#DejaVuSans-Bold-69" transform="translate(1951.806641 0)"/>
     <use xlink:href="#DejaVuSans-Bold-78" transform="translate(1986.083984 0)"/>
     <use xlink:href="#DejaVuSans-Bold-29" transform="translate(2050.585938 0)"/>
    </g>
   </g>
   <g id="text_14">
    <!-- Предсказано -->
    <g style="fill: #262626" transform="translate(242.496016 25.432344) scale(0.11 -0.11)">
     <defs>
      <path id="DejaVuSans-Bold-41f" d="M 4769 4666 
L 4769 0 
L 3566 0 
L 3566 3756 
L 1791 3756 
L 1791 0 
L 588 0 
L 588 4666 
L 4769 4666 
z
" transform="scale(0.015625)"/>
      <path id="DejaVuSans-Bold-435" d="M 4031 1759 
L 4031 1441 
L 1416 1441 
Q 1456 1047 1700 850 
Q 1944 653 2381 653 
Q 2734 653 3104 758 
Q 3475 863 3866 1075 
L 3866 213 
Q 3469 63 3072 -14 
Q 2675 -91 2278 -91 
Q 1328 -91 801 392 
Q 275 875 275 1747 
Q 275 2603 792 3093 
Q 1309 3584 2216 3584 
Q 3041 3584 3536 3087 
Q 4031 2591 4031 1759 
z
M 2881 2131 
Q 2881 2450 2695 2645 
Q 2509 2841 2209 2841 
Q 1884 2841 1681 2658 
Q 1478 2475 1428 2131 
L 2881 2131 
z
" transform="scale(0.015625)"/>
      <path id="DejaVuSans-Bold-434" d="M 547 800 
Q 903 919 1053 1314 
Q 1203 1709 1203 2838 
L 1203 3500 
L 4228 3500 
L 4228 800 
L 4809 800 
L 4809 -884 
L 4009 -884 
L 4009 0 
L 1159 0 
L 1159 -884 
L 359 -884 
L 359 800 
L 547 800 
z
M 3109 2700 
L 2322 2700 
L 2322 2603 
Q 2322 1456 2063 800 
L 3109 800 
L 3109 2700 
z
" transform="scale(0.015625)"/>
      <path id="DejaVuSans-Bold-441" d="M 3366 3391 
L 3366 2478 
Q 3138 2634 2908 2709 
Q 2678 2784 2431 2784 
Q 1963 2784 1702 2511 
Q 1441 2238 1441 1747 
Q 1441 1256 1702 982 
Q 1963 709 2431 709 
Q 2694 709 2930 787 
Q 3166 866 3366 1019 
L 3366 103 
Q 3103 6 2833 -42 
Q 2563 -91 2291 -91 
Q 1344 -91 809 395 
Q 275 881 275 1747 
Q 275 2613 809 3098 
Q 1344 3584 2291 3584 
Q 2566 3584 2833 3536 
Q 3100 3488 3366 3391 
z
" transform="scale(0.015625)"/>
      <path id="DejaVuSans-Bold-437" d="M 900 2181 
L 1413 2181 
Q 1872 2181 2039 2281 
Q 2206 2381 2206 2519 
Q 2206 2841 1469 2841 
Q 853 2841 472 2625 
L 472 3434 
Q 1041 3584 1713 3584 
Q 2500 3584 2862 3361 
Q 3225 3138 3225 2666 
Q 3225 2047 2541 1888 
Q 3313 1697 3313 994 
Q 3313 453 2888 181 
Q 2463 -91 1553 -91 
Q 875 -91 313 84 
L 313 947 
Q 1013 653 1428 653 
Q 1884 653 2089 776 
Q 2294 900 2294 1056 
Q 2294 1491 1394 1491 
L 900 1491 
L 900 2181 
z
" transform="scale(0.015625)"/>
      <path id="DejaVuSans-Bold-43d" d="M 538 3500 
L 1656 3500 
L 1656 2169 
L 2766 2169 
L 2766 3500 
L 3884 3500 
L 3884 0 
L 2766 0 
L 2766 1478 
L 1656 1478 
L 1656 0 
L 538 0 
L 538 3500 
z
" transform="scale(0.015625)"/>
     </defs>
     <use xlink:href="#DejaVuSans-Bold-41f"/>
     <use xlink:href="#DejaVuSans-Bold-440" transform="translate(83.691406 0)"/>
     <use xlink:href="#DejaVuSans-Bold-435" transform="translate(155.273438 0)"/>
     <use xlink:href="#DejaVuSans-Bold-434" transform="translate(223.095703 0)"/>
     <use xlink:href="#DejaVuSans-Bold-441" transform="translate(303.857422 0)"/>
     <use xlink:href="#DejaVuSans-Bold-43a" transform="translate(363.134766 0)"/>
     <use xlink:href="#DejaVuSans-Bold-430" transform="translate(431.005859 0)"/>
     <use xlink:href="#DejaVuSans-Bold-437" transform="translate(498.486328 0)"/>
     <use xlink:href="#DejaVuSans-Bold-430" transform="translate(556.591797 0)"/>
     <use xlink:href="#DejaVuSans-Bold-43d" transform="translate(624.072266 0)"/>
     <use xlink:href="#DejaVuSans-Bold-43e" transform="translate(693.164062 0)"/>
    </g>
   </g>
   <g id="text_15">
    <!-- Факт -->
    <g style="fill: #262626" transform="translate(88.072344 187.446641) rotate(-90) scale(0.11 -0.11)">
     <defs>
      <path id="DejaVuSans-Bold-424" d="M 1563 2378 
Q 1563 1909 1805 1700 
Q 2047 1491 2572 1447 
L 2572 3313 
Q 2047 3269 1805 3058 
Q 1563 2847 1563 2378 
z
M 4784 2378 
Q 4784 2847 4542 3058 
Q 4300 3269 3775 3313 
L 3775 1447 
Q 4300 1491 4542 1700 
Q 4784 1909 4784 2378 
z
M 2572 4666 
L 3775 4666 
L 3775 4203 
Q 4922 4109 5473 3681 
Q 6025 3253 6025 2378 
Q 6025 1503 5473 1076 
Q 4922 650 3775 556 
L 3775 0 
L 2572 0 
L 2572 556 
Q 1425 650 872 1076 
Q 319 1503 319 2378 
Q 319 3253 872 3681 
Q 1425 4109 2572 4203 
L 2572 4666 
z
" transform="scale(0.015625)"/>
     </defs>
     <use xlink:href="#DejaVuSans-Bold-424"/>
     <use xlink:href="#DejaVuSans-Bold-430" transform="translate(99.169922 0)"/>
     <use xlink:href="#DejaVuSans-Bold-43a" transform="translate(166.650391 0)"/>
     <use xlink:href="#DejaVuSans-Bold-442" transform="translate(234.521484 0)"/>
    </g>
   </g>
   <g id="text_16">
    <!-- Negative (0) -->
    <g style="fill: #262626" transform="translate(173.23875 34.056281) scale(0.09 -0.09)">
     <defs>
      <path id="DejaVuSans-28" d="M 1984 4856 
Q 1566 4138 1362 3434 
Q 1159 2731 1159 2009 
Q 1159 1288 1364 580 
Q 1569 -128 1984 -844 
L 1484 -844 
Q 1016 -109 783 600 
Q 550 1309 550 2009 
Q 550 2706 781 3412 
Q 1013 4119 1484 4856 
L 1984 4856 
z
" transform="scale(0.015625)"/>
      <path id="DejaVuSans-30" d="M 2034 4250 
Q 1547 4250 1301 3770 
Q 1056 3291 1056 2328 
Q 1056 1369 1301 889 
Q 1547 409 2034 409 
Q 2525 409 2770 889 
Q 3016 1369 3016 2328 
Q 3016 3291 2770 3770 
Q 2525 4250 2034 4250 
z
M 2034 4750 
Q 2819 4750 3233 4129 
Q 3647 3509 3647 2328 
Q 3647 1150 3233 529 
Q 2819 -91 2034 -91 
Q 1250 -91 836 529 
Q 422 1150 422 2328 
Q 422 3509 836 4129 
Q 1250 4750 2034 4750 
z
" transform="scale(0.015625)"/>
      <path id="DejaVuSans-29" d="M 513 4856 
L 1013 4856 
Q 1481 4119 1714 3412 
Q 1947 2706 1947 2009 
Q 1947 1309 1714 600 
Q 1481 -109 1013 -844 
L 513 -844 
Q 928 -128 1133 580 
Q 1338 1288 1338 2009 
Q 1338 2731 1133 3434 
Q 928 4138 513 4856 
z
" transform="scale(0.015625)"/>
     </defs>
     <use xlink:href="#DejaVuSans-4e"/>
     <use xlink:href="#DejaVuSans-65" transform="translate(74.804688 0)"/>
     <use xlink:href="#DejaVuSans-67" transform="translate(136.328125 0)"/>
     <use xlink:href="#DejaVuSans-61" transform="translate(199.804688 0)"/>
     <use xlink:href="#DejaVuSans-74" transform="translate(261.083984 0)"/>
     <use xlink:href="#DejaVuSans-69" transform="translate(300.292969 0)"/>
     <use xlink:href="#DejaVuSans-76" transform="translate(328.076172 0)"/>
     <use xlink:href="#DejaVuSans-65" transform="translate(387.255859 0)"/>
     <use xlink:href="#DejaVuSans-20" transform="translate(448.779297 0)"/>
     <use xlink:href="#DejaVuSans-28" transform="translate(480.566406 0)"/>
     <use xlink:href="#DejaVuSans-30" transform="translate(519.580078 0)"/>
     <use xlink:href="#DejaVuSans-29" transform="translate(583.203125 0)"/>
    </g>
   </g>
   <g id="text_17">
    <!-- Positive (1) -->
    <g style="fill: #262626" transform="translate(342.410625 34.056281) scale(0.09 -0.09)">
     <defs>
      <path id="DejaVuSans-31" d="M 794 531 
L 1825 531 
L 1825 4091 
L 703 3866 
L 703 4441 
L 1819 4666 
L 2450 4666 
L 2450 531 
L 3481 531 
L 3481 0 
L 794 0 
L 794 531 
z
" transform="scale(0.015625)"/>
     </defs>
     <use xlink:href="#DejaVuSans-50"/>
     <use xlink:href="#DejaVuSans-6f" transform="translate(56.677734 0)"/>
     <use xlink:href="#DejaVuSans-73" transform="translate(117.859375 0)"/>
     <use xlink:href="#DejaVuSans-69" transform="translate(169.958984 0)"/>
     <use xlink:href="#DejaVuSans-74" transform="translate(197.742188 0)"/>
     <use xlink:href="#DejaVuSans-69" transform="translate(236.951172 0)"/>
     <use xlink:href="#DejaVuSans-76" transform="translate(264.734375 0)"/>
     <use xlink:href="#DejaVuSans-65" transform="translate(323.914062 0)"/>
     <use xlink:href="#DejaVuSans-20" transform="translate(385.4375 0)"/>
     <use xlink:href="#DejaVuSans-28" transform="translate(417.224609 0)"/>
     <use xlink:href="#DejaVuSans-31" transform="translate(456.238281 0)"/>
     <use xlink:href="#DejaVuSans-29" transform="translate(519.861328 0)"/>
    </g>
   </g>
   <g id="text_18">
    <!-- Neg (0) -->
    <g style="fill: #262626" transform="translate(67.854094 112.283437) scale(0.09 -0.09)">
     <use xlink:href="#DejaVuSans-4e"/>
     <use xlink:href="#DejaVuSans-65" transform="translate(74.804688 0)"/>
     <use xlink:href="#DejaVuSans-67" transform="translate(136.328125 0)"/>
     <use xlink:href="#DejaVuSans-20" transform="translate(199.804688 0)"/>
     <use xlink:href="#DejaVuSans-28" transform="translate(231.591797 0)"/>
     <use xlink:href="#DejaVuSans-30" transform="translate(270.605469 0)"/>
     <use xlink:href="#DejaVuSans-29" transform="translate(334.228516 0)"/>
    </g>
   </g>
   <g id="text_19">
    <!-- Pos (1) -->
    <g style="fill: #262626" transform="translate(70.542844 235.403437) scale(0.09 -0.09)">
     <use xlink:href="#DejaVuSans-50"/>
     <use xlink:href="#DejaVuSans-6f" transform="translate(56.677734 0)"/>
     <use xlink:href="#DejaVuSans-73" transform="translate(117.859375 0)"/>
     <use xlink:href="#DejaVuSans-20" transform="translate(169.958984 0)"/>
     <use xlink:href="#DejaVuSans-28" transform="translate(201.746094 0)"/>
     <use xlink:href="#DejaVuSans-31" transform="translate(240.759766 0)"/>
     <use xlink:href="#DejaVuSans-29" transform="translate(304.382812 0)"/>
    </g>
   </g>
  </g>
 </g>
 <defs>
  <clipPath id="p6b1cb2b08c">
   <rect x="7.2" y="7.2" width="554.4" height="410.4"/>
  </clipPath>
 </defs>
</svg>
