<?xml version="1.0" encoding="utf-8" standalone="no"?>
<!DOCTYPE svg PUBLIC "-//W3C//DTD SVG 1.1//EN"
  "http://www.w3.org/Graphics/SVG/1.1/DTD/svg11.dtd">
<svg xmlns:xlink="http://www.w3.org/1999/xlink" width="552.588438pt" height="569.110937pt" viewBox="0 0 552.588438 569.110937" xmlns="http://www.w3.org/2000/svg" version="1.1">
 <metadata>
  <rdf:RDF xmlns:dc="http://purl.org/dc/elements/1.1/" xmlns:cc="http://creativecommons.org/ns#" xmlns:rdf="http://www.w3.org/1999/02/22-rdf-syntax-ns#">
   <cc:Work>
    <dc:type rdf:resource="http://purl.org/dc/dcmitype/StillImage"/>
    <dc:date>2026-01-06T21:57:19.735908</dc:date>
    <dc:format>image/svg+xml</dc:format>
    <dc:creator>
     <cc:Agent>
      <dc:title>Matplotlib v3.10.8, https://matplotlib.org/</dc:title>
     </cc:Agent>
    </dc:creator>
   </cc:Work>
  </rdf:RDF>
 </metadata>
 <defs>
  <style type="text/css">*{stroke-linejoin: round; stroke-linecap: butt}</style>
 </defs>
 <g id="figure_1">
  <g id="patch_1">
   <path d="M 0 569.110937 
L 552.588438 569.110937 
L 552.588438 0 
L 0 0 
z
" style="fill: #ffffff"/>
  </g>
  <g id="axes_1">
   <g id="patch_2">
    <path d="M 42.216875 533.119062 
L 537.436875 533.119062 
L 537.436875 37.899062 
L 42.216875 37.899062 
z
" style="fill: #eaeaf2"/>
   </g>
   <g id="matplotlib.axis_1">
    <g id="xtick_1">
     <g id="line2d_1">
      <path d="M 42.216875 533.119062 
L 42.216875 37.899062 
" clip-path="url(#p5f548d4d49)" style="fill: none; stroke-dasharray: 1.85,0.8; stroke-dashoffset: 0; stroke: #ffffff; stroke-opacity: 0.3; stroke-width: 0.5"/>
     </g>
     <g id="line2d_2"/>
     <g id="text_1">
      <!-- 0.0 -->
      <g style="fill: #262626" transform="translate(34.265313 544.2175) scale(0.1 -0.1)">
       <defs>
        <path id="DejaVuSans-30" d="M 2034 4250 
Q 1547 4250 1301 3770 
Q 1056 3291 1056 2328 
Q 1056 1369 1301 889 
Q 1547 409 2034 409 
Q 2525 409 2770 889 
Q 3016 1369 3016 2328 
Q 3016 3291 2770 3770 
Q 2525 4250 2034 4250 
z
M 2034 4750 
Q 2819 4750 3233 4129 
Q 3647 3509 3647 2328 
Q 3647 1150 3233 529 
Q 2819 -91 2034 -91 
Q 1250 -91 836 529 
Q 422 1150 422 2328 
Q 422 3509 836 4129 
Q 1250 4750 2034 4750 
z
" transform="scale(0.015625)"/>
        <path id="DejaVuSans-2e" d="M 684 794 
L 1344 794 
L 1344 0 
L 684 0 
L 684 794 
z
" transform="scale(0.015625)"/>
       </defs>
       <use xlink:href="#DejaVuSans-30"/>
       <use xlink:href="#DejaVuSans-2e" transform="translate(63.623047 0)"/>
       <use xlink:href="#DejaVuSans-30" transform="translate(95.410156 0)"/>
      </g>
     </g>
    </g>
    <g id="xtick_2">
     <g id="line2d_3">
      <path d="M 141.260875 533.119062 
L 141.260875 37.899062 
" clip-path="url(#p5f548d4d49)" style="fill: none; stroke-dasharray: 1.85,0.8; stroke-dashoffset: 0; stroke: #ffffff; stroke-opacity: 0.3; stroke-width: 0.5"/>
     </g>
     <g id="line2d_4"/>
     <g id="text_2">
      <!-- 0.2 -->
      <g style="fill: #262626" transform="translate(133.309313 544.2175) scale(0.1 -0.1)">
       <defs>
        <path id="DejaVuSans-32" d="M 1228 531 
L 3431 531 
L 3431 0 
L 469 0 
L 469 531 
Q 828 903 1448 1529 
Q 2069 2156 2228 2338 
Q 2531 2678 2651 2914 
Q 2772 3150 2772 3378 
Q 2772 3750 2511 3984 
Q 2250 4219 1831 4219 
Q 1534 4219 1204 4116 
Q 875 4013 500 3803 
L 500 4441 
Q 881 4594 1212 4672 
Q 1544 4750 1819 4750 
Q 2544 4750 2975 4387 
Q 3406 4025 3406 3419 
Q 3406 3131 3298 2873 
Q 3191 2616 2906 2266 
Q 2828 2175 2409 1742 
Q 1991 1309 1228 531 
z
" transform="scale(0.015625)"/>
       </defs>
       <use xlink:href="#DejaVuSans-30"/>
       <use xlink:href="#DejaVuSans-2e" transform="translate(63.623047 0)"/>
       <use xlink:href="#DejaVuSans-32" transform="translate(95.410156 0)"/>
      </g>
     </g>
    </g>
    <g id="xtick_3">
     <g id="line2d_5">
      <path d="M 240.304875 533.119062 
L 240.304875 37.899062 
" clip-path="url(#p5f548d4d49)" style="fill: none; stroke-dasharray: 1.85,0.8; stroke-dashoffset: 0; stroke: #ffffff; stroke-opacity: 0.3; stroke-width: 0.5"/>
     </g>
     <g id="line2d_6"/>
     <g id="text_3">
      <!-- 0.4 -->
      <g style="fill: #262626" transform="translate(232.353313 544.2175) scale(0.1 -0.1)">
       <defs>
        <path id="DejaVuSans-34" d="M 2419 4116 
L 825 1625 
L 2419 1625 
L 2419 4116 
z
M 2253 4666 
L 3047 4666 
L 3047 1625 
L 3713 1625 
L 3713 1100 
L 3047 1100 
L 3047 0 
L 2419 0 
L 2419 1100 
L 313 1100 
L 313 1709 
L 2253 4666 
z
" transform="scale(0.015625)"/>
       </defs>
       <use xlink:href="#DejaVuSans-30"/>
       <use xlink:href="#DejaVuSans-2e" transform="translate(63.623047 0)"/>
       <use xlink:href="#DejaVuSans-34" transform="translate(95.410156 0)"/>
      </g>
     </g>
    </g>
    <g id="xtick_4">
     <g id="line2d_7">
      <path d="M 339.348875 533.119062 
L 339.348875 37.899062 
" clip-path="url(#p5f548d4d49)" style="fill: none; stroke-dasharray: 1.85,0.8; stroke-dashoffset: 0; stroke: #ffffff; stroke-opacity: 0.3; stroke-width: 0.5"/>
     </g>
     <g id="line2d_8"/>
     <g id="text_4">
      <!-- 0.6 -->
      <g style="fill: #262626" transform="translate(331.397312 544.2175) scale(0.1 -0.1)">
       <defs>
        <path id="DejaVuSans-36" d="M 2113 2584 
Q 1688 2584 1439 2293 
Q 1191 2003 1191 1497 
Q 1191 994 1439 701 
Q 1688 409 2113 409 
Q 2538 409 2786 701 
Q 3034 994 3034 1497 
Q 3034 2003 2786 2293 
Q 2538 2584 2113 2584 
z
M 3366 4563 
L 3366 3988 
Q 3128 4100 2886 4159 
Q 2644 4219 2406 4219 
Q 1781 4219 1451 3797 
Q 1122 3375 1075 2522 
Q 1259 2794 1537 2939 
Q 1816 3084 2150 3084 
Q 2853 3084 3261 2657 
Q 3669 2231 3669 1497 
Q 3669 778 3244 343 
Q 2819 -91 2113 -91 
Q 1303 -91 875 529 
Q 447 1150 447 2328 
Q 447 3434 972 4092 
Q 1497 4750 2381 4750 
Q 2619 4750 2861 4703 
Q 3103 4656 3366 4563 
z
" transform="scale(0.015625)"/>
       </defs>
       <use xlink:href="#DejaVuSans-30"/>
       <use xlink:href="#DejaVuSans-2e" transform="translate(63.623047 0)"/>
       <use xlink:href="#DejaVuSans-36" transform="translate(95.410156 0)"/>
      </g>
     </g>
    </g>
    <g id="xtick_5">
     <g id="line2d_9">
      <path d="M 438.392875 533.119062 
L 438.392875 37.899062 
" clip-path="url(#p5f548d4d49)" style="fill: none; stroke-dasharray: 1.85,0.8; stroke-dashoffset: 0; stroke: #ffffff; stroke-opacity: 0.3; stroke-width: 0.5"/>
     </g>
     <g id="line2d_10"/>
     <g id="text_5">
      <!-- 0.8 -->
      <g style="fill: #262626" transform="translate(430.441312 544.2175) scale(0.1 -0.1)">
       <defs>
        <path id="DejaVuSans-38" d="M 2034 2216 
Q 1584 2216 1326 1975 
Q 1069 1734 1069 1313 
Q 1069 891 1326 650 
Q 1584 409 2034 409 
Q 2484 409 2743 651 
Q 3003 894 3003 1313 
Q 3003 1734 2745 1975 
Q 2488 2216 2034 2216 
z
M 1403 2484 
Q 997 2584 770 2862 
Q 544 3141 544 3541 
Q 544 4100 942 4425 
Q 1341 4750 2034 4750 
Q 2731 4750 3128 4425 
Q 3525 4100 3525 3541 
Q 3525 3141 3298 2862 
Q 3072 2584 2669 2484 
Q 3125 2378 3379 2068 
Q 3634 1759 3634 1313 
Q 3634 634 3220 271 
Q 2806 -91 2034 -91 
Q 1263 -91 848 271 
Q 434 634 434 1313 
Q 434 1759 690 2068 
Q 947 2378 1403 2484 
z
M 1172 3481 
Q 1172 3119 1398 2916 
Q 1625 2713 2034 2713 
Q 2441 2713 2670 2916 
Q 2900 3119 2900 3481 
Q 2900 3844 2670 4047 
Q 2441 4250 2034 4250 
Q 1625 4250 1398 4047 
Q 1172 3844 1172 3481 
z
" transform="scale(0.015625)"/>
       </defs>
       <use xlink:href="#DejaVuSans-30"/>
       <use xlink:href="#DejaVuSans-2e" transform="translate(63.623047 0)"/>
       <use xlink:href="#DejaVuSans-38" transform="translate(95.410156 0)"/>
      </g>
     </g>
    </g>
    <g id="xtick_6">
     <g id="line2d_11">
      <path d="M 537.436875 533.119062 
L 537.436875 37.899062 
" clip-path="url(#p5f548d4d49)" style="fill: none; stroke-dasharray: 1.85,0.8; stroke-dashoffset: 0; stroke: #ffffff; stroke-opacity: 0.3; stroke-width: 0.5"/>
     </g>
     <g id="line2d_12"/>
     <g id="text_6">
      <!-- 1.0 -->
      <g style="fill: #262626" transform="translate(529.485312 544.2175) scale(0.1 -0.1)">
       <defs>
        <path id="DejaVuSans-31" d="M 794 531 
L 1825 531 
L 1825 4091 
L 703 3866 
L 703 4441 
L 1819 4666 
L 2450 4666 
L 2450 531 
L 3481 531 
L 3481 0 
L 794 0 
L 794 531 
z
" transform="scale(0.015625)"/>
       </defs>
       <use xlink:href="#DejaVuSans-31"/>
       <use xlink:href="#DejaVuSans-2e" transform="translate(63.623047 0)"/>
       <use xlink:href="#DejaVuSans-30" transform="translate(95.410156 0)"/>
      </g>
     </g>
    </g>
    <g id="text_7">
     <!-- False Positive Rate (FPR) -->
     <g style="fill: #262626" transform="translate(204.806875 559.415312) scale(0.12 -0.12)">
      <defs>
       <path id="DejaVuSans-Bold-46" d="M 588 4666 
L 3834 4666 
L 3834 3756 
L 1791 3756 
L 1791 2888 
L 3713 2888 
L 3713 1978 
L 1791 1978 
L 1791 0 
L 588 0 
L 588 4666 
z
" transform="scale(0.015625)"/>
       <path id="DejaVuSans-Bold-61" d="M 2106 1575 
Q 1756 1575 1579 1456 
Q 1403 1338 1403 1106 
Q 1403 894 1545 773 
Q 1688 653 1941 653 
Q 2256 653 2472 879 
Q 2688 1106 2688 1447 
L 2688 1575 
L 2106 1575 
z
M 3816 1997 
L 3816 0 
L 2688 0 
L 2688 519 
Q 2463 200 2181 54 
Q 1900 -91 1497 -91 
Q 953 -91 614 226 
Q 275 544 275 1050 
Q 275 1666 698 1953 
Q 1122 2241 2028 2241 
L 2688 2241 
L 2688 2328 
Q 2688 2594 2478 2717 
Q 2269 2841 1825 2841 
Q 1466 2841 1156 2769 
Q 847 2697 581 2553 
L 581 3406 
Q 941 3494 1303 3539 
Q 1666 3584 2028 3584 
Q 2975 3584 3395 3211 
Q 3816 2838 3816 1997 
z
" transform="scale(0.015625)"/>
       <path id="DejaVuSans-Bold-6c" d="M 538 4863 
L 1656 4863 
L 1656 0 
L 538 0 
L 538 4863 
z
" transform="scale(0.015625)"/>
       <path id="DejaVuSans-Bold-73" d="M 3272 3391 
L 3272 2541 
Q 2913 2691 2578 2766 
Q 2244 2841 1947 2841 
Q 1628 2841 1473 2761 
Q 1319 2681 1319 2516 
Q 1319 2381 1436 2309 
Q 1553 2238 1856 2203 
L 2053 2175 
Q 2913 2066 3209 1816 
Q 3506 1566 3506 1031 
Q 3506 472 3093 190 
Q 2681 -91 1863 -91 
Q 1516 -91 1145 -36 
Q 775 19 384 128 
L 384 978 
Q 719 816 1070 734 
Q 1422 653 1784 653 
Q 2113 653 2278 743 
Q 2444 834 2444 1013 
Q 2444 1163 2330 1236 
Q 2216 1309 1875 1350 
L 1678 1375 
Q 931 1469 631 1722 
Q 331 1975 331 2491 
Q 331 3047 712 3315 
Q 1094 3584 1881 3584 
Q 2191 3584 2531 3537 
Q 2872 3491 3272 3391 
z
" transform="scale(0.015625)"/>
       <path id="DejaVuSans-Bold-65" d="M 4031 1759 
L 4031 1441 
L 1416 1441 
Q 1456 1047 1700 850 
Q 1944 653 2381 653 
Q 2734 653 3104 758 
Q 3475 863 3866 1075 
L 3866 213 
Q 3469 63 3072 -14 
Q 2675 -91 2278 -91 
Q 1328 -91 801 392 
Q 275 875 275 1747 
Q 275 2603 792 3093 
Q 1309 3584 2216 3584 
Q 3041 3584 3536 3087 
Q 4031 2591 4031 1759 
z
M 2881 2131 
Q 2881 2450 2695 2645 
Q 2509 2841 2209 2841 
Q 1884 2841 1681 2658 
Q 1478 2475 1428 2131 
L 2881 2131 
z
" transform="scale(0.015625)"/>
       <path id="DejaVuSans-Bold-20" transform="scale(0.015625)"/>
       <path id="DejaVuSans-Bold-50" d="M 588 4666 
L 2584 4666 
Q 3475 4666 3951 4270 
Q 4428 3875 4428 3144 
Q 4428 2409 3951 2014 
Q 3475 1619 2584 1619 
L 1791 1619 
L 1791 0 
L 588 0 
L 588 4666 
z
M 1791 3794 
L 1791 2491 
L 2456 2491 
Q 2806 2491 2997 2661 
Q 3188 2831 3188 3144 
Q 3188 3456 2997 3625 
Q 2806 3794 2456 3794 
L 1791 3794 
z
" transform="scale(0.015625)"/>
       <path id="DejaVuSans-Bold-6f" d="M 2203 2784 
Q 1831 2784 1636 2517 
Q 1441 2250 1441 1747 
Q 1441 1244 1636 976 
Q 1831 709 2203 709 
Q 2569 709 2762 976 
Q 2956 1244 2956 1747 
Q 2956 2250 2762 2517 
Q 2569 2784 2203 2784 
z
M 2203 3584 
Q 3106 3584 3614 3096 
Q 4122 2609 4122 1747 
Q 4122 884 3614 396 
Q 3106 -91 2203 -91 
Q 1297 -91 786 396 
Q 275 884 275 1747 
Q 275 2609 786 3096 
Q 1297 3584 2203 3584 
z
" transform="scale(0.015625)"/>
       <path id="DejaVuSans-Bold-69" d="M 538 3500 
L 1656 3500 
L 1656 0 
L 538 0 
L 538 3500 
z
M 538 4863 
L 1656 4863 
L 1656 3950 
L 538 3950 
L 538 4863 
z
" transform="scale(0.015625)"/>
       <path id="DejaVuSans-Bold-74" d="M 1759 4494 
L 1759 3500 
L 2913 3500 
L 2913 2700 
L 1759 2700 
L 1759 1216 
Q 1759 972 1856 886 
Q 1953 800 2241 800 
L 2816 800 
L 2816 0 
L 1856 0 
Q 1194 0 917 276 
Q 641 553 641 1216 
L 641 2700 
L 84 2700 
L 84 3500 
L 641 3500 
L 641 4494 
L 1759 4494 
z
" transform="scale(0.015625)"/>
       <path id="DejaVuSans-Bold-76" d="M 97 3500 
L 1216 3500 
L 2088 1081 
L 2956 3500 
L 4078 3500 
L 2700 0 
L 1472 0 
L 97 3500 
z
" transform="scale(0.015625)"/>
       <path id="DejaVuSans-Bold-52" d="M 2297 2597 
Q 2675 2597 2839 2737 
Q 3003 2878 3003 3200 
Q 3003 3519 2839 3656 
Q 2675 3794 2297 3794 
L 1791 3794 
L 1791 2597 
L 2297 2597 
z
M 1791 1766 
L 1791 0 
L 588 0 
L 588 4666 
L 2425 4666 
Q 3347 4666 3776 4356 
Q 4206 4047 4206 3378 
Q 4206 2916 3982 2619 
Q 3759 2322 3309 2181 
Q 3556 2125 3751 1926 
Q 3947 1728 4147 1325 
L 4800 0 
L 3519 0 
L 2950 1159 
Q 2778 1509 2601 1637 
Q 2425 1766 2131 1766 
L 1791 1766 
z
" transform="scale(0.015625)"/>
       <path id="DejaVuSans-Bold-28" d="M 2413 -844 
L 1484 -844 
Q 1006 -72 778 623 
Q 550 1319 550 2003 
Q 550 2688 779 3389 
Q 1009 4091 1484 4856 
L 2413 4856 
Q 2013 4116 1813 3408 
Q 1613 2700 1613 2009 
Q 1613 1319 1811 609 
Q 2009 -100 2413 -844 
z
" transform="scale(0.015625)"/>
       <path id="DejaVuSans-Bold-29" d="M 513 -844 
Q 913 -100 1113 609 
Q 1313 1319 1313 2009 
Q 1313 2700 1113 3408 
Q 913 4116 513 4856 
L 1441 4856 
Q 1916 4091 2145 3389 
Q 2375 2688 2375 2003 
Q 2375 1319 2147 623 
Q 1919 -72 1441 -844 
L 513 -844 
z
" transform="scale(0.015625)"/>
      </defs>
      <use xlink:href="#DejaVuSans-Bold-46"/>
      <use xlink:href="#DejaVuSans-Bold-61" transform="translate(62.435547 0)"/>
      <use xlink:href="#DejaVuSans-Bold-6c" transform="translate(129.916016 0)"/>
      <use xlink:href="#DejaVuSans-Bold-73" transform="translate(164.193359 0)"/>
      <use xlink:href="#DejaVuSans-Bold-65" transform="translate(223.714844 0)"/>
      <use xlink:href="#DejaVuSans-Bold-20" transform="translate(291.537109 0)"/>
      <use xlink:href="#DejaVuSans-Bold-50" transform="translate(326.351562 0)"/>
      <use xlink:href="#DejaVuSans-Bold-6f" transform="translate(399.642578 0)"/>
      <use xlink:href="#DejaVuSans-Bold-73" transform="translate(468.34375 0)"/>
      <use xlink:href="#DejaVuSans-Bold-69" transform="translate(527.865234 0)"/>
      <use xlink:href="#DejaVuSans-Bold-74" transform="translate(562.142578 0)"/>
      <use xlink:href="#DejaVuSans-Bold-69" transform="translate(609.945312 0)"/>
      <use xlink:href="#DejaVuSans-Bold-76" transform="translate(644.222656 0)"/>
      <use xlink:href="#DejaVuSans-Bold-65" transform="translate(709.408203 0)"/>
      <use xlink:href="#DejaVuSans-Bold-20" transform="translate(777.230469 0)"/>
      <use xlink:href="#DejaVuSans-Bold-52" transform="translate(812.044922 0)"/>
      <use xlink:href="#DejaVuSans-Bold-61" transform="translate(889.046875 0)"/>
      <use xlink:href="#DejaVuSans-Bold-74" transform="translate(956.527344 0)"/>
      <use xlink:href="#DejaVuSans-Bold-65" transform="translate(1004.330078 0)"/>
      <use xlink:href="#DejaVuSans-Bold-20" transform="translate(1072.152344 0)"/>
      <use xlink:href="#DejaVuSans-Bold-28" transform="translate(1106.966797 0)"/>
      <use xlink:href="#DejaVuSans-Bold-46" transform="translate(1152.669922 0)"/>
      <use xlink:href="#DejaVuSans-Bold-50" transform="translate(1220.980469 0)"/>
      <use xlink:href="#DejaVuSans-Bold-52" transform="translate(1294.271484 0)"/>
      <use xlink:href="#DejaVuSans-Bold-29" transform="translate(1371.273438 0)"/>
     </g>
    </g>
   </g>
   <g id="matplotlib.axis_2">
    <g id="ytick_1">
     <g id="line2d_13">
      <path d="M 42.216875 533.119062 
L 537.436875 533.119062 
" clip-path="url(#p5f548d4d49)" style="fill: none; stroke-dasharray: 1.85,0.8; stroke-dashoffset: 0; stroke: #ffffff; stroke-opacity: 0.3; stroke-width: 0.5"/>
     </g>
     <g id="line2d_14"/>
     <g id="text_8">
      <!-- 0.0 -->
      <g style="fill: #262626" transform="translate(22.81375 536.918281) scale(0.1 -0.1)">
       <use xlink:href="#DejaVuSans-30"/>
       <use xlink:href="#DejaVuSans-2e" transform="translate(63.623047 0)"/>
       <use xlink:href="#DejaVuSans-30" transform="translate(95.410156 0)"/>
      </g>
     </g>
    </g>
    <g id="ytick_2">
     <g id="line2d_15">
      <path d="M 42.216875 434.075062 
L 537.436875 434.075062 
" clip-path="url(#p5f548d4d49)" style="fill: none; stroke-dasharray: 1.85,0.8; stroke-dashoffset: 0; stroke: #ffffff; stroke-opacity: 0.3; stroke-width: 0.5"/>
     </g>
     <g id="line2d_16"/>
     <g id="text_9">
      <!-- 0.2 -->
      <g style="fill: #262626" transform="translate(22.81375 437.874281) scale(0.1 -0.1)">
       <use xlink:href="#DejaVuSans-30"/>
       <use xlink:href="#DejaVuSans-2e" transform="translate(63.623047 0)"/>
       <use xlink:href="#DejaVuSans-32" transform="translate(95.410156 0)"/>
      </g>
     </g>
    </g>
    <g id="ytick_3">
     <g id="line2d_17">
      <path d="M 42.216875 335.031062 
L 537.436875 335.031062 
" clip-path="url(#p5f548d4d49)" style="fill: none; stroke-dasharray: 1.85,0.8; stroke-dashoffset: 0; stroke: #ffffff; stroke-opacity: 0.3; stroke-width: 0.5"/>
     </g>
     <g id="line2d_18"/>
     <g id="text_10">
      <!-- 0.4 -->
      <g style="fill: #262626" transform="translate(22.81375 338.830281) scale(0.1 -0.1)">
       <use xlink:href="#DejaVuSans-30"/>
       <use xlink:href="#DejaVuSans-2e" transform="translate(63.623047 0)"/>
       <use xlink:href="#DejaVuSans-34" transform="translate(95.410156 0)"/>
      </g>
     </g>
    </g>
    <g id="ytick_4">
     <g id="line2d_19">
      <path d="M 42.216875 235.987062 
L 537.436875 235.987062 
" clip-path="url(#p5f548d4d49)" style="fill: none; stroke-dasharray: 1.85,0.8; stroke-dashoffset: 0; stroke: #ffffff; stroke-opacity: 0.3; stroke-width: 0.5"/>
     </g>
     <g id="line2d_20"/>
     <g id="text_11">
      <!-- 0.6 -->
      <g style="fill: #262626" transform="translate(22.81375 239.786281) scale(0.1 -0.1)">
       <use xlink:href="#DejaVuSans-30"/>
       <use xlink:href="#DejaVuSans-2e" transform="translate(63.623047 0)"/>
       <use xlink:href="#DejaVuSans-36" transform="translate(95.410156 0)"/>
      </g>
     </g>
    </g>
    <g id="ytick_5">
     <g id="line2d_21">
      <path d="M 42.216875 136.943062 
L 537.436875 136.943062 
" clip-path="url(#p5f548d4d49)" style="fill: none; stroke-dasharray: 1.85,0.8; stroke-dashoffset: 0; stroke: #ffffff; stroke-opacity: 0.3; stroke-width: 0.5"/>
     </g>
     <g id="line2d_22"/>
     <g id="text_12">
      <!-- 0.8 -->
      <g style="fill: #262626" transform="translate(22.81375 140.742281) scale(0.1 -0.1)">
       <use xlink:href="#DejaVuSans-30"/>
       <use xlink:href="#DejaVuSans-2e" transform="translate(63.623047 0)"/>
       <use xlink:href="#DejaVuSans-38" transform="translate(95.410156 0)"/>
      </g>
     </g>
    </g>
    <g id="ytick_6">
     <g id="line2d_23">
      <path d="M 42.216875 37.899062 
L 537.436875 37.899062 
" clip-path="url(#p5f548d4d49)" style="fill: none; stroke-dasharray: 1.85,0.8; stroke-dashoffset: 0; stroke: #ffffff; stroke-opacity: 0.3; stroke-width: 0.5"/>
     </g>
     <g id="line2d_24"/>
     <g id="text_13">
      <!-- 1.0 -->
      <g style="fill: #262626" transform="translate(22.81375 41.698281) scale(0.1 -0.1)">
       <use xlink:href="#DejaVuSans-31"/>
       <use xlink:href="#DejaVuSans-2e" transform="translate(63.623047 0)"/>
       <use xlink:href="#DejaVuSans-30" transform="translate(95.410156 0)"/>
      </g>
     </g>
    </g>
    <g id="text_14">
     <!-- True Positive Rate (TPR) -->
     <g style="fill: #262626" transform="translate(16.318125 367.763437) rotate(-90) scale(0.12 -0.12)">
      <defs>
       <path id="DejaVuSans-Bold-54" d="M 31 4666 
L 4331 4666 
L 4331 3756 
L 2784 3756 
L 2784 0 
L 1581 0 
L 1581 3756 
L 31 3756 
L 31 4666 
z
" transform="scale(0.015625)"/>
       <path id="DejaVuSans-Bold-72" d="M 3138 2547 
Q 2991 2616 2845 2648 
Q 2700 2681 2553 2681 
Q 2122 2681 1889 2404 
Q 1656 2128 1656 1613 
L 1656 0 
L 538 0 
L 538 3500 
L 1656 3500 
L 1656 2925 
Q 1872 3269 2151 3426 
Q 2431 3584 2822 3584 
Q 2878 3584 2943 3579 
Q 3009 3575 3134 3559 
L 3138 2547 
z
" transform="scale(0.015625)"/>
       <path id="DejaVuSans-Bold-75" d="M 500 1363 
L 500 3500 
L 1625 3500 
L 1625 3150 
Q 1625 2866 1622 2436 
Q 1619 2006 1619 1863 
Q 1619 1441 1641 1255 
Q 1663 1069 1716 984 
Q 1784 875 1895 815 
Q 2006 756 2150 756 
Q 2500 756 2700 1025 
Q 2900 1294 2900 1772 
L 2900 3500 
L 4019 3500 
L 4019 0 
L 2900 0 
L 2900 506 
Q 2647 200 2364 54 
Q 2081 -91 1741 -91 
Q 1134 -91 817 281 
Q 500 653 500 1363 
z
" transform="scale(0.015625)"/>
      </defs>
      <use xlink:href="#DejaVuSans-Bold-54"/>
      <use xlink:href="#DejaVuSans-Bold-72" transform="translate(57.212891 0)"/>
      <use xlink:href="#DejaVuSans-Bold-75" transform="translate(106.529297 0)"/>
      <use xlink:href="#DejaVuSans-Bold-65" transform="translate(177.720703 0)"/>
      <use xlink:href="#DejaVuSans-Bold-20" transform="translate(245.542969 0)"/>
      <use xlink:href="#DejaVuSans-Bold-50" transform="translate(280.357422 0)"/>
      <use xlink:href="#DejaVuSans-Bold-6f" transform="translate(353.648438 0)"/>
      <use xlink:href="#DejaVuSans-Bold-73" transform="translate(422.349609 0)"/>
      <use xlink:href="#DejaVuSans-Bold-69" transform="translate(481.871094 0)"/>
      <use xlink:href="#DejaVuSans-Bold-74" transform="translate(516.148438 0)"/>
      <use xlink:href="#DejaVuSans-Bold-69" transform="translate(563.951172 0)"/>
      <use xlink:href="#DejaVuSans-Bold-76" transform="translate(598.228516 0)"/>
      <use xlink:href="#DejaVuSans-Bold-65" transform="translate(663.414062 0)"/>
      <use xlink:href="#DejaVuSans-Bold-20" transform="translate(731.236328 0)"/>
      <use xlink:href="#DejaVuSans-Bold-52" transform="translate(766.050781 0)"/>
      <use xlink:href="#DejaVuSans-Bold-61" transform="translate(843.052734 0)"/>
      <use xlink:href="#DejaVuSans-Bold-74" transform="translate(910.533203 0)"/>
      <use xlink:href="#DejaVuSans-Bold-65" transform="translate(958.335938 0)"/>
      <use xlink:href="#DejaVuSans-Bold-20" transform="translate(1026.158203 0)"/>
      <use xlink:href="#DejaVuSans-Bold-28" transform="translate(1060.972656 0)"/>
      <use xlink:href="#DejaVuSans-Bold-54" transform="translate(1106.675781 0)"/>
      <use xlink:href="#DejaVuSans-Bold-50" transform="translate(1174.888672 0)"/>
      <use xlink:href="#DejaVuSans-Bold-52" transform="translate(1248.179688 0)"/>
      <use xlink:href="#DejaVuSans-Bold-29" transform="translate(1325.181641 0)"/>
     </g>
    </g>
   </g>
   <g id="FillBetweenPolyCollection_1">
    <defs>
     <path id="m552b759143" d="M 42.216875 -35.991875 
L 42.216875 -35.991875 
L 47.219097 -35.991875 
L 52.221319 -35.991875 
L 57.223542 -35.991875 
L 62.225764 -35.991875 
L 67.227986 -35.991875 
L 72.230208 -35.991875 
L 77.232431 -35.991875 
L 82.234653 -35.991875 
L 87.236875 -35.991875 
L 92.239097 -35.991875 
L 97.241319 -35.991875 
L 102.243542 -35.991875 
L 107.245764 -35.991875 
L 112.247986 -35.991875 
L 117.250208 -35.991875 
L 122.252431 -35.991875 
L 127.254653 -35.991875 
L 132.256875 -35.991875 
L 137.259097 -35.991875 
L 142.261319 -35.991875 
L 147.263542 -35.991875 
L 152.265764 -35.991875 
L 157.267986 -35.991875 
L 162.270208 -35.991875 
L 167.272431 -35.991875 
L 172.274653 -35.991875 
L 177.276875 -35.991875 
L 182.279097 -35.991875 
L 187.281319 -35.991875 
L 192.283542 -35.991875 
L 197.285764 -35.991875 
L 202.287986 -35.991875 
L 207.290208 -35.991875 
L 212.292431 -35.991875 
L 217.294653 -35.991875 
L 222.296875 -35.991875 
L 227.299097 -35.991875 
L 232.301319 -35.991875 
L 237.303542 -35.991875 
L 242.305764 -35.991875 
L 247.307986 -35.991875 
L 252.310208 -35.991875 
L 257.312431 -35.991875 
L 262.314653 -35.991875 
L 267.316875 -35.991875 
L 272.319097 -35.991875 
L 277.321319 -35.991875 
L 282.323542 -35.991875 
L 287.325764 -35.991875 
L 292.327986 -35.991875 
L 297.330208 -35.991875 
L 302.332431 -35.991875 
L 307.334653 -35.991875 
L 312.336875 -35.991875 
L 317.339097 -35.991875 
L 322.341319 -35.991875 
L 327.343542 -35.991875 
L 332.345764 -35.991875 
L 337.347986 -35.991875 
L 342.350208 -35.991875 
L 347.352431 -35.991875 
L 352.354653 -35.991875 
L 357.356875 -35.991875 
L 362.359097 -35.991875 
L 367.361319 -35.991875 
L 372.363542 -35.991875 
L 377.365764 -35.991875 
L 382.367986 -35.991875 
L 387.370208 -35.991875 
L 392.372431 -35.991875 
L 397.374653 -35.991875 
L 402.376875 -35.991875 
L 407.379097 -35.991875 
L 412.381319 -35.991875 
L 417.383542 -35.991875 
L 422.385764 -35.991875 
L 427.387986 -35.991875 
L 432.390208 -35.991875 
L 437.392431 -35.991875 
L 442.394653 -35.991875 
L 447.396875 -35.991875 
L 452.399097 -35.991875 
L 457.401319 -35.991875 
L 462.403542 -35.991875 
L 467.405764 -35.991875 
L 472.407986 -35.991875 
L 477.410208 -35.991875 
L 482.412431 -35.991875 
L 487.414653 -35.991875 
L 492.416875 -35.991875 
L 497.419097 -35.991875 
L 502.421319 -35.991875 
L 507.423542 -35.991875 
L 512.425764 -35.991875 
L 517.427986 -35.991875 
L 522.430208 -35.991875 
L 527.432431 -35.991875 
L 532.434653 -35.991875 
L 537.436875 -35.991875 
L 537.436875 -531.045747 
L 537.436875 -531.045747 
L 532.434653 -531.031765 
L 527.432431 -531.016607 
L 522.430208 -531.000173 
L 517.427986 -530.982355 
L 512.425764 -530.963038 
L 507.423542 -530.942095 
L 502.421319 -530.91939 
L 497.419097 -530.894773 
L 492.416875 -530.868085 
L 487.414653 -530.839151 
L 482.412431 -530.807782 
L 477.410208 -530.773772 
L 472.407986 -530.7369 
L 467.405764 -530.696925 
L 462.403542 -530.653585 
L 457.401319 -530.606598 
L 452.399097 -530.555656 
L 447.396875 -530.500427 
L 442.394653 -530.440549 
L 437.392431 -530.375632 
L 432.390208 -530.305252 
L 427.387986 -530.228948 
L 422.385764 -530.146222 
L 417.383542 -530.056533 
L 412.381319 -529.959297 
L 407.379097 -529.853876 
L 402.376875 -529.739583 
L 397.374653 -529.615671 
L 392.372431 -529.48133 
L 387.370208 -529.335682 
L 382.367986 -529.177777 
L 377.365764 -529.006581 
L 372.363542 -528.820978 
L 367.361319 -528.619753 
L 362.359097 -528.401593 
L 357.356875 -528.165071 
L 352.354653 -527.908644 
L 347.352431 -527.630635 
L 342.350208 -527.329228 
L 337.347986 -527.002453 
L 332.345764 -526.648176 
L 327.343542 -526.264083 
L 322.341319 -525.847662 
L 317.339097 -525.396195 
L 312.336875 -524.906731 
L 307.334653 -524.376073 
L 302.332431 -523.800753 
L 297.330208 -523.177012 
L 292.327986 -522.500775 
L 287.325764 -521.767624 
L 282.323542 -520.97277 
L 277.321319 -520.111018 
L 272.319097 -519.176739 
L 267.316875 -518.163828 
L 262.314653 -517.065668 
L 257.312431 -515.875083 
L 252.310208 -514.584296 
L 247.307986 -513.184872 
L 242.305764 -511.667669 
L 237.303542 -510.022774 
L 232.301319 -508.23944 
L 227.299097 -506.306015 
L 222.296875 -504.209868 
L 217.294653 -501.937303 
L 212.292431 -499.473473 
L 207.290208 -496.80228 
L 202.287986 -493.906272 
L 197.285764 -490.766528 
L 192.283542 -487.362534 
L 187.281319 -483.672051 
L 182.279097 -479.670966 
L 177.276875 -475.333138 
L 172.274653 -470.630227 
L 167.272431 -465.531506 
L 162.270208 -460.003662 
L 157.267986 -454.010579 
L 152.265764 -447.513101 
L 147.263542 -440.468777 
L 142.261319 -432.831584 
L 137.259097 -424.551622 
L 132.256875 -415.574796 
L 127.254653 -405.842456 
L 122.252431 -395.291014 
L 117.250208 -383.851533 
L 112.247986 -371.449273 
L 107.245764 -358.003204 
L 102.243542 -343.425477 
L 97.241319 -327.620846 
L 92.239097 -310.486054 
L 87.236875 -291.90915 
L 82.234653 -271.768762 
L 77.232431 -249.933302 
L 72.230208 -226.260108 
L 67.227986 -200.594512 
L 62.225764 -172.768827 
L 57.223542 -142.601255 
L 52.221319 -109.894695 
L 47.219097 -74.435459 
L 42.216875 -35.991875 
z
" style="stroke: #1565c0; stroke-opacity: 0.1"/>
    </defs>
    <g clip-path="url(#p5f548d4d49)">
     <use xlink:href="#m552b759143" x="0" y="569.110937" style="fill: #1565c0; fill-opacity: 0.1; stroke: #1565c0; stroke-opacity: 0.1"/>
    </g>
   </g>
   <g id="line2d_25">
    <path d="M 42.216875 533.119062 
L 47.219097 37.899062 
L 52.221319 37.899062 
L 57.223542 37.899062 
L 62.225764 37.899062 
L 67.227986 37.899062 
L 72.230208 37.899062 
L 77.232431 37.899062 
L 82.234653 37.899062 
L 87.236875 37.899062 
L 92.239097 37.899062 
L 97.241319 37.899062 
L 102.243542 37.899062 
L 107.245764 37.899062 
L 112.247986 37.899062 
L 117.250208 37.899062 
L 122.252431 37.899062 
L 127.254653 37.899062 
L 132.256875 37.899062 
L 137.259097 37.899062 
L 142.261319 37.899062 
L 147.263542 37.899062 
L 152.265764 37.899062 
L 157.267986 37.899062 
L 162.270208 37.899062 
L 167.272431 37.899062 
L 172.274653 37.899062 
L 177.276875 37.899062 
L 182.279097 37.899062 
L 187.281319 37.899062 
L 192.283542 37.899062 
L 197.285764 37.899062 
L 202.287986 37.899062 
L 207.290208 37.899062 
L 212.292431 37.899062 
L 217.294653 37.899062 
L 222.296875 37.899062 
L 227.299097 37.899062 
L 232.301319 37.899062 
L 237.303542 37.899062 
L 242.305764 37.899062 
L 247.307986 37.899062 
L 252.310208 37.899062 
L 257.312431 37.899062 
L 262.314653 37.899062 
L 267.316875 37.899062 
L 272.319097 37.899062 
L 277.321319 37.899062 
L 282.323542 37.899062 
L 287.325764 37.899062 
L 292.327986 37.899062 
L 297.330208 37.899062 
L 302.332431 37.899062 
L 307.334653 37.899062 
L 312.336875 37.899062 
L 317.339097 37.899062 
L 322.341319 37.899062 
L 327.343542 37.899062 
L 332.345764 37.899062 
L 337.347986 37.899062 
L 342.350208 37.899062 
L 347.352431 37.899062 
L 352.354653 37.899062 
L 357.356875 37.899062 
L 362.359097 37.899062 
L 367.361319 37.899062 
L 372.363542 37.899062 
L 377.365764 37.899062 
L 382.367986 37.899062 
L 387.370208 37.899062 
L 392.372431 37.899062 
L 397.374653 37.899062 
L 402.376875 37.899062 
L 407.379097 37.899062 
L 412.381319 37.899062 
L 417.383542 37.899062 
L 422.385764 37.899062 
L 427.387986 37.899062 
L 432.390208 37.899062 
L 437.392431 37.899062 
L 442.394653 37.899062 
L 447.396875 37.899062 
L 452.399097 37.899062 
L 457.401319 37.899062 
L 462.403542 37.899062 
L 467.405764 37.899062 
L 472.407986 37.899062 
L 477.410208 37.899062 
L 482.412431 37.899062 
L 487.414653 37.899062 
L 492.416875 37.899062 
L 497.419097 37.899062 
L 502.421319 37.899062 
L 507.423542 37.899062 
L 512.425764 37.899062 
L 517.427986 37.899062 
L 522.430208 37.899062 
L 527.432431 37.899062 
L 532.434653 37.899062 
L 537.436875 37.899062 
" clip-path="url(#p5f548d4d49)" style="fill: none; stroke: #2e7d32; stroke-opacity: 0.9; stroke-width: 2.5; stroke-linecap: round"/>
   </g>
   <g id="line2d_26">
    <path d="M 42.216875 533.119062 
L 47.219097 494.675478 
L 52.221319 459.216242 
L 57.223542 426.509683 
L 62.225764 396.34211 
L 67.227986 368.516426 
L 72.230208 342.85083 
L 77.232431 319.177636 
L 82.234653 297.342176 
L 87.236875 277.201787 
L 92.239097 258.624883 
L 97.241319 241.490091 
L 102.243542 225.685461 
L 107.245764 211.107733 
L 112.247986 197.661665 
L 117.250208 185.259405 
L 122.252431 173.819924 
L 127.254653 163.268482 
L 132.256875 153.536141 
L 137.259097 144.559315 
L 142.261319 136.279354 
L 147.263542 128.64216 
L 152.265764 121.597837 
L 157.267986 115.100359 
L 162.270208 109.107276 
L 167.272431 103.579432 
L 172.274653 98.48071 
L 177.276875 93.777799 
L 182.279097 89.439972 
L 187.281319 85.438887 
L 192.283542 81.748403 
L 197.285764 78.344409 
L 202.287986 75.204665 
L 207.290208 72.308657 
L 212.292431 69.637464 
L 217.294653 67.173634 
L 222.296875 64.90107 
L 227.299097 62.804923 
L 232.301319 60.871498 
L 237.303542 59.088164 
L 242.305764 57.443269 
L 247.307986 55.926065 
L 252.310208 54.526642 
L 257.312431 53.235854 
L 262.314653 52.04527 
L 267.316875 50.94711 
L 272.319097 49.934199 
L 277.321319 48.999919 
L 282.323542 48.138168 
L 287.325764 47.343313 
L 292.327986 46.610162 
L 297.330208 45.933926 
L 302.332431 45.310185 
L 307.334653 44.734865 
L 312.336875 44.204206 
L 317.339097 43.714742 
L 322.341319 43.263275 
L 327.343542 42.846855 
L 332.345764 42.462761 
L 337.347986 42.108484 
L 342.350208 41.78171 
L 347.352431 41.480303 
L 352.354653 41.202294 
L 357.356875 40.945866 
L 362.359097 40.709345 
L 367.361319 40.491185 
L 372.363542 40.28996 
L 377.365764 40.104356 
L 382.367986 39.933161 
L 387.370208 39.775255 
L 392.372431 39.629608 
L 397.374653 39.495267 
L 402.376875 39.371354 
L 407.379097 39.257061 
L 412.381319 39.151641 
L 417.383542 39.054404 
L 422.385764 38.964716 
L 427.387986 38.88199 
L 432.390208 38.805686 
L 437.392431 38.735305 
L 442.394653 38.670388 
L 447.396875 38.610511 
L 452.399097 38.555282 
L 457.401319 38.50434 
L 462.403542 38.457353 
L 467.405764 38.414013 
L 472.407986 38.374038 
L 477.410208 38.337166 
L 482.412431 38.303156 
L 487.414653 38.271786 
L 492.416875 38.242852 
L 497.419097 38.216164 
L 502.421319 38.191548 
L 507.423542 38.168842 
L 512.425764 38.147899 
L 517.427986 38.128582 
L 522.430208 38.110765 
L 527.432431 38.094331 
L 532.434653 38.079172 
L 537.436875 38.06519 
" clip-path="url(#p5f548d4d49)" style="fill: none; stroke: #1565c0; stroke-opacity: 0.9; stroke-width: 2.5; stroke-linecap: round"/>
   </g>
   <g id="line2d_27">
    <path d="M 42.216875 533.119062 
L 47.219097 487.824506 
L 52.221319 468.769863 
L 57.223542 454.032333 
L 62.225764 441.529505 
L 67.227986 430.454775 
L 72.230208 420.394466 
L 77.232431 411.102838 
L 82.234653 402.419774 
L 87.236875 394.234059 
L 92.239097 386.464717 
L 97.241319 379.050618 
L 102.243542 371.94427 
L 107.245764 365.107904 
L 112.247986 358.510899 
L 117.250208 352.128018 
L 122.252431 345.938169 
L 127.254653 339.923512 
L 132.256875 334.068797 
L 137.259097 328.360863 
L 142.261319 322.788265 
L 147.263542 317.340968 
L 152.265764 312.010122 
L 157.267986 306.78787 
L 162.270208 301.667204 
L 167.272431 296.641835 
L 172.274653 291.706099 
L 177.276875 286.854873 
L 182.279097 282.083502 
L 187.281319 277.387745 
L 192.283542 272.763722 
L 197.285764 268.207875 
L 202.287986 263.71693 
L 207.290208 259.287869 
L 212.292431 254.917898 
L 217.294653 250.604428 
L 222.296875 246.345056 
L 227.299097 242.137541 
L 232.301319 237.979796 
L 237.303542 233.869867 
L 242.305764 229.805928 
L 247.307986 225.786263 
L 252.310208 221.809263 
L 257.312431 217.873413 
L 262.314653 213.977285 
L 267.316875 210.119532 
L 272.319097 206.298883 
L 277.321319 202.514133 
L 282.323542 198.764143 
L 287.325764 195.047833 
L 292.327986 191.364175 
L 297.330208 187.712196 
L 302.332431 184.090968 
L 307.334653 180.499608 
L 312.336875 176.937274 
L 317.339097 173.403165 
L 322.341319 169.896514 
L 327.343542 166.416587 
L 332.345764 162.962686 
L 337.347986 159.53414 
L 342.350208 156.130307 
L 347.352431 152.750571 
L 352.354653 149.394343 
L 357.356875 146.061055 
L 362.359097 142.750165 
L 367.361319 139.461148 
L 372.363542 136.193503 
L 377.365764 132.946744 
L 382.367986 129.720407 
L 387.370208 126.514042 
L 392.372431 123.327217 
L 397.374653 120.159514 
L 402.376875 117.010531 
L 407.379097 113.879879 
L 412.381319 110.767183 
L 417.383542 107.67208 
L 422.385764 104.59422 
L 427.387986 101.533262 
L 432.390208 98.488879 
L 437.392431 95.460754 
L 442.394653 92.448578 
L 447.396875 89.452053 
L 452.399097 86.47089 
L 457.401319 83.50481 
L 462.403542 80.553539 
L 467.405764 77.616816 
L 472.407986 74.694383 
L 477.410208 71.785993 
L 482.412431 68.891403 
L 487.414653 66.010379 
L 492.416875 63.142693 
L 497.419097 60.288124 
L 502.421319 57.446456 
L 507.423542 54.617479 
L 512.425764 51.800988 
L 517.427986 48.996786 
L 522.430208 46.204678 
L 527.432431 43.424477 
L 532.434653 40.655998 
L 537.436875 37.899062 
" clip-path="url(#p5f548d4d49)" style="fill: none; stroke: #ef6c00; stroke-opacity: 0.8; stroke-width: 2; stroke-linecap: round"/>
   </g>
   <g id="line2d_28">
    <path d="M 42.216875 533.119062 
L 47.219097 512.66432 
L 52.221319 493.752632 
L 57.223542 477.772966 
L 62.225764 465.821505 
L 67.227986 458.592185 
L 72.230208 456.307399 
L 77.232431 458.695789 
L 82.234653 465.019346 
L 87.236875 474.147103 
L 92.239097 484.668071 
L 97.241319 495.03214 
L 102.243542 503.704865 
L 107.245764 509.320698 
L 112.247986 510.819343 
L 117.250208 507.551638 
L 122.252431 499.344377 
L 127.254653 486.51761 
L 132.256875 469.852677 
L 137.259097 450.514191 
L 142.261319 429.933739 
L 147.263542 409.666928 
L 152.265764 391.238046 
L 157.267986 375.987849 
L 162.270208 364.939677 
L 167.272431 358.697265 
L 172.274653 357.384455 
L 177.276875 360.632832 
L 182.279097 367.618508 
L 187.281319 377.1444 
L 192.283542 387.759761 
L 197.285764 397.905056 
L 202.287986 406.067686 
L 207.290208 410.933039 
L 212.292431 411.515762 
L 217.294653 407.258153 
L 222.296875 398.085858 
L 227.299097 384.415291 
L 232.301319 367.112053 
L 237.303542 347.404496 
L 242.305764 326.761062 
L 247.307986 306.743648 
L 252.310208 288.851636 
L 257.312431 274.372173 
L 262.314653 264.251635 
L 267.316875 259.001125 
L 272.319097 258.645437 
L 277.321319 262.720577 
L 282.323542 270.320102 
L 287.325764 280.185628 
L 292.327986 290.832497 
L 297.330208 300.698023 
L 302.332431 308.297548 
L 307.334653 312.372688 
L 312.336875 312.017 
L 317.339097 306.76649 
L 322.341319 296.645952 
L 327.343542 282.166489 
L 332.345764 264.274477 
L 337.347986 244.257063 
L 342.350208 223.613629 
L 347.352431 203.906072 
L 352.354653 186.602834 
L 357.356875 172.932267 
L 362.359097 163.759972 
L 367.361319 159.502363 
L 372.363542 160.085086 
L 377.365764 164.950439 
L 382.367986 173.113069 
L 387.370208 183.258364 
L 392.372431 193.873725 
L 397.374653 203.399617 
L 402.376875 210.385293 
L 407.379097 213.63367 
L 412.381319 212.32086 
L 417.383542 206.078448 
L 422.385764 195.030276 
L 427.387986 179.780079 
L 432.390208 161.351197 
L 437.392431 141.084386 
L 442.394653 120.503934 
L 447.396875 101.165448 
L 452.399097 84.500515 
L 457.401319 71.673748 
L 462.403542 63.466487 
L 467.405764 60.198782 
L 472.407986 61.697427 
L 477.410208 67.31326 
L 482.412431 75.985985 
L 487.414653 86.350054 
L 492.416875 96.871022 
L 497.419097 105.998779 
L 502.421319 112.322336 
L 507.423542 114.710726 
L 512.425764 112.42594 
L 517.427986 105.19662 
L 522.430208 93.245159 
L 527.432431 77.265493 
L 532.434653 58.353805 
L 537.436875 37.899062 
" clip-path="url(#p5f548d4d49)" style="fill: none; stroke-dasharray: 7.4,3.2; stroke-dashoffset: 0; stroke: #c62828; stroke-opacity: 0.7; stroke-width: 2"/>
   </g>
   <g id="line2d_29">
    <path d="M 42.216875 533.119062 
L 47.219097 528.11684 
L 52.221319 523.114618 
L 57.223542 518.112396 
L 62.225764 513.110174 
L 67.227986 508.107951 
L 72.230208 503.105729 
L 77.232431 498.103507 
L 82.234653 493.101285 
L 87.236875 488.099062 
L 92.239097 483.09684 
L 97.241319 478.094618 
L 102.243542 473.092396 
L 107.245764 468.090174 
L 112.247986 463.087951 
L 117.250208 458.085729 
L 122.252431 453.083507 
L 127.254653 448.081285 
L 132.256875 443.079062 
L 137.259097 438.07684 
L 142.261319 433.074618 
L 147.263542 428.072396 
L 152.265764 423.070174 
L 157.267986 418.067951 
L 162.270208 413.065729 
L 167.272431 408.063507 
L 172.274653 403.061285 
L 177.276875 398.059062 
L 182.279097 393.05684 
L 187.281319 388.054618 
L 192.283542 383.052396 
L 197.285764 378.050174 
L 202.287986 373.047951 
L 207.290208 368.045729 
L 212.292431 363.043507 
L 217.294653 358.041285 
L 222.296875 353.039062 
L 227.299097 348.03684 
L 232.301319 343.034618 
L 237.303542 338.032396 
L 242.305764 333.030174 
L 247.307986 328.027951 
L 252.310208 323.025729 
L 257.312431 318.023507 
L 262.314653 313.021285 
L 267.316875 308.019062 
L 272.319097 303.01684 
L 277.321319 298.014618 
L 282.323542 293.012396 
L 287.325764 288.010174 
L 292.327986 283.007951 
L 297.330208 278.005729 
L 302.332431 273.003507 
L 307.334653 268.001285 
L 312.336875 262.999062 
L 317.339097 257.99684 
L 322.341319 252.994618 
L 327.343542 247.992396 
L 332.345764 242.990174 
L 337.347986 237.987951 
L 342.350208 232.985729 
L 347.352431 227.983507 
L 352.354653 222.981285 
L 357.356875 217.979062 
L 362.359097 212.97684 
L 367.361319 207.974618 
L 372.363542 202.972396 
L 377.365764 197.970174 
L 382.367986 192.967951 
L 387.370208 187.965729 
L 392.372431 182.963507 
L 397.374653 177.961285 
L 402.376875 172.959062 
L 407.379097 167.95684 
L 412.381319 162.954618 
L 417.383542 157.952396 
L 422.385764 152.950174 
L 427.387986 147.947951 
L 432.390208 142.945729 
L 437.392431 137.943507 
L 442.394653 132.941285 
L 447.396875 127.939062 
L 452.399097 122.93684 
L 457.401319 117.934618 
L 462.403542 112.932396 
L 467.405764 107.930174 
L 472.407986 102.927951 
L 477.410208 97.925729 
L 482.412431 92.923507 
L 487.414653 87.921285 
L 492.416875 82.919062 
L 497.419097 77.91684 
L 502.421319 72.914618 
L 507.423542 67.912396 
L 512.425764 62.910174 
L 517.427986 57.907951 
L 522.430208 52.905729 
L 527.432431 47.903507 
L 532.434653 42.901285 
L 537.436875 37.899062 
" clip-path="url(#p5f548d4d49)" style="fill: none; stroke-dasharray: 7.4,3.2; stroke-dashoffset: 0; stroke: #999999; stroke-opacity: 0.5; stroke-width: 2"/>
   </g>
   <g id="line2d_30">
    <defs>
     <path id="m5693dffe26" d="M 0 3 
C 0.795609 3 1.55874 2.683901 2.12132 2.12132 
C 2.683901 1.55874 3 0.795609 3 0 
C 3 -0.795609 2.683901 -1.55874 2.12132 -2.12132 
C 1.55874 -2.683901 0.795609 -3 0 -3 
C -0.795609 -3 -1.55874 -2.683901 -2.12132 -2.12132 
C -2.683901 -1.55874 -3 -0.795609 -3 0 
C -3 0.795609 -2.683901 1.55874 -2.12132 2.12132 
C -1.55874 2.683901 -0.795609 3 0 3 
z
" style="stroke: #ffffff; stroke-width: 1.5"/>
    </defs>
    <g clip-path="url(#p5f548d4d49)">
     <use xlink:href="#m5693dffe26" x="92.239097" y="258.624883" style="fill: #1565c0; stroke: #ffffff; stroke-width: 1.5"/>
    </g>
   </g>
   <g id="line2d_31">
    <g clip-path="url(#p5f548d4d49)">
     <use xlink:href="#m5693dffe26" x="192.283542" y="81.748403" style="fill: #1565c0; stroke: #ffffff; stroke-width: 1.5"/>
    </g>
   </g>
   <g id="line2d_32">
    <g clip-path="url(#p5f548d4d49)">
     <use xlink:href="#m5693dffe26" x="292.327986" y="46.610162" style="fill: #1565c0; stroke: #ffffff; stroke-width: 1.5"/>
    </g>
   </g>
   <g id="line2d_33">
    <g clip-path="url(#p5f548d4d49)">
     <use xlink:href="#m5693dffe26" x="392.372431" y="39.629608" style="fill: #1565c0; stroke: #ffffff; stroke-width: 1.5"/>
    </g>
   </g>
   <g id="patch_3">
    <path d="M 42.216875 533.119062 
L 42.216875 37.899062 
" style="fill: none"/>
   </g>
   <g id="patch_4">
    <path d="M 537.436875 533.119062 
L 537.436875 37.899062 
" style="fill: none"/>
   </g>
   <g id="patch_5">
    <path d="M 42.216875 533.119062 
L 537.436875 533.119062 
" style="fill: none"/>
   </g>
   <g id="patch_6">
    <path d="M 42.216875 37.899062 
L 537.436875 37.899062 
" style="fill: none"/>
   </g>
   <g id="text_15">
    <g id="patch_7">
     <path d="M 215.543875 482.712 
L 322.556375 482.712 
Q 325.556375 482.712 325.556375 479.712 
L 325.556375 458.836062 
Q 325.556375 455.836062 322.556375 455.836062 
L 215.543875 455.836062 
Q 212.543875 455.836062 212.543875 458.836062 
L 212.543875 479.712 
Q 212.543875 482.712 215.543875 482.712 
z
" style="fill: #f5deb3; opacity: 0.8; stroke: #000000; stroke-linejoin: miter"/>
    </g>
    <!-- AUC = Площадь под -->
    <g style="fill: #262626" transform="translate(215.543875 466.4345) scale(0.1 -0.1)">
     <defs>
      <path id="DejaVuSans-41" d="M 2188 4044 
L 1331 1722 
L 3047 1722 
L 2188 4044 
z
M 1831 4666 
L 2547 4666 
L 4325 0 
L 3669 0 
L 3244 1197 
L 1141 1197 
L 716 0 
L 50 0 
L 1831 4666 
z
" transform="scale(0.015625)"/>
      <path id="DejaVuSans-55" d="M 556 4666 
L 1191 4666 
L 1191 1831 
Q 1191 1081 1462 751 
Q 1734 422 2344 422 
Q 2950 422 3222 751 
Q 3494 1081 3494 1831 
L 3494 4666 
L 4128 4666 
L 4128 1753 
Q 4128 841 3676 375 
Q 3225 -91 2344 -91 
Q 1459 -91 1007 375 
Q 556 841 556 1753 
L 556 4666 
z
" transform="scale(0.015625)"/>
      <path id="DejaVuSans-43" d="M 4122 4306 
L 4122 3641 
Q 3803 3938 3442 4084 
Q 3081 4231 2675 4231 
Q 1875 4231 1450 3742 
Q 1025 3253 1025 2328 
Q 1025 1406 1450 917 
Q 1875 428 2675 428 
Q 3081 428 3442 575 
Q 3803 722 4122 1019 
L 4122 359 
Q 3791 134 3420 21 
Q 3050 -91 2638 -91 
Q 1578 -91 968 557 
Q 359 1206 359 2328 
Q 359 3453 968 4101 
Q 1578 4750 2638 4750 
Q 3056 4750 3426 4639 
Q 3797 4528 4122 4306 
z
" transform="scale(0.015625)"/>
      <path id="DejaVuSans-20" transform="scale(0.015625)"/>
      <path id="DejaVuSans-3d" d="M 678 2906 
L 4684 2906 
L 4684 2381 
L 678 2381 
L 678 2906 
z
M 678 1631 
L 4684 1631 
L 4684 1100 
L 678 1100 
L 678 1631 
z
" transform="scale(0.015625)"/>
      <path id="DejaVuSans-41f" d="M 4184 4666 
L 4184 0 
L 3553 0 
L 3553 4134 
L 1259 4134 
L 1259 0 
L 628 0 
L 628 4666 
L 4184 4666 
z
" transform="scale(0.015625)"/>
      <path id="DejaVuSans-43b" d="M 238 0 
L 238 478 
Q 806 566 981 959 
Q 1194 1513 1194 2928 
L 1194 3500 
L 3559 3500 
L 3559 0 
L 2984 0 
L 2984 3041 
L 1769 3041 
L 1769 2694 
Q 1769 1344 1494 738 
Q 1200 91 238 0 
z
" transform="scale(0.015625)"/>
      <path id="DejaVuSans-43e" d="M 1959 3097 
Q 1497 3097 1228 2736 
Q 959 2375 959 1747 
Q 959 1119 1226 758 
Q 1494 397 1959 397 
Q 2419 397 2687 759 
Q 2956 1122 2956 1747 
Q 2956 2369 2687 2733 
Q 2419 3097 1959 3097 
z
M 1959 3584 
Q 2709 3584 3137 3096 
Q 3566 2609 3566 1747 
Q 3566 888 3137 398 
Q 2709 -91 1959 -91 
Q 1206 -91 779 398 
Q 353 888 353 1747 
Q 353 2609 779 3096 
Q 1206 3584 1959 3584 
z
" transform="scale(0.015625)"/>
      <path id="DejaVuSans-449" d="M 5275 0 
L 581 0 
L 581 3500 
L 1159 3500 
L 1159 459 
L 2638 459 
L 2638 3500 
L 3216 3500 
L 3216 459 
L 4697 459 
L 4697 3500 
L 5275 3500 
L 5275 459 
L 5734 459 
L 5734 -884 
L 5275 -884 
L 5275 0 
z
" transform="scale(0.015625)"/>
      <path id="DejaVuSans-430" d="M 2194 1759 
Q 1497 1759 1228 1600 
Q 959 1441 959 1056 
Q 959 750 1161 570 
Q 1363 391 1709 391 
Q 2188 391 2477 730 
Q 2766 1069 2766 1631 
L 2766 1759 
L 2194 1759 
z
M 3341 1997 
L 3341 0 
L 2766 0 
L 2766 531 
Q 2569 213 2275 61 
Q 1981 -91 1556 -91 
Q 1019 -91 701 211 
Q 384 513 384 1019 
Q 384 1609 779 1909 
Q 1175 2209 1959 2209 
L 2766 2209 
L 2766 2266 
Q 2766 2663 2505 2880 
Q 2244 3097 1772 3097 
Q 1472 3097 1187 3025 
Q 903 2953 641 2809 
L 641 3341 
Q 956 3463 1253 3523 
Q 1550 3584 1831 3584 
Q 2591 3584 2966 3190 
Q 3341 2797 3341 1997 
z
" transform="scale(0.015625)"/>
      <path id="DejaVuSans-434" d="M 1384 459 
L 3053 459 
L 3053 3041 
L 1844 3041 
L 1844 2603 
Q 1844 1316 1475 628 
L 1384 459 
z
M 550 459 
Q 834 584 959 850 
Q 1266 1509 1266 2838 
L 1266 3500 
L 3631 3500 
L 3631 459 
L 4091 459 
L 4091 -884 
L 3631 -884 
L 3631 0 
L 794 0 
L 794 -884 
L 334 -884 
L 334 459 
L 550 459 
z
" transform="scale(0.015625)"/>
      <path id="DejaVuSans-44c" d="M 2781 1038 
Q 2781 1319 2576 1466 
Q 2372 1613 1978 1613 
L 1159 1613 
L 1159 459 
L 1978 459 
Q 2372 459 2576 607 
Q 2781 756 2781 1038 
z
M 581 3500 
L 1159 3500 
L 1159 2072 
L 2003 2072 
Q 2672 2072 3033 1817 
Q 3394 1563 3394 1038 
Q 3394 513 3033 256 
Q 2672 0 2003 0 
L 581 0 
L 581 3500 
z
" transform="scale(0.015625)"/>
      <path id="DejaVuSans-43f" d="M 3603 3500 
L 3603 0 
L 3025 0 
L 3025 3041 
L 1159 3041 
L 1159 0 
L 581 0 
L 581 3500 
L 3603 3500 
z
" transform="scale(0.015625)"/>
     </defs>
     <use xlink:href="#DejaVuSans-41"/>
     <use xlink:href="#DejaVuSans-55" transform="translate(68.408203 0)"/>
     <use xlink:href="#DejaVuSans-43" transform="translate(141.601562 0)"/>
     <use xlink:href="#DejaVuSans-20" transform="translate(211.425781 0)"/>
     <use xlink:href="#DejaVuSans-3d" transform="translate(243.212891 0)"/>
     <use xlink:href="#DejaVuSans-20" transform="translate(327.001953 0)"/>
     <use xlink:href="#DejaVuSans-41f" transform="translate(358.789062 0)"/>
     <use xlink:href="#DejaVuSans-43b" transform="translate(433.984375 0)"/>
     <use xlink:href="#DejaVuSans-43e" transform="translate(497.900391 0)"/>
     <use xlink:href="#DejaVuSans-449" transform="translate(559.082031 0)"/>
     <use xlink:href="#DejaVuSans-430" transform="translate(653.271484 0)"/>
     <use xlink:href="#DejaVuSans-434" transform="translate(714.550781 0)"/>
     <use xlink:href="#DejaVuSans-44c" transform="translate(783.691406 0)"/>
     <use xlink:href="#DejaVuSans-20" transform="translate(842.626953 0)"/>
     <use xlink:href="#DejaVuSans-43f" transform="translate(874.414062 0)"/>
     <use xlink:href="#DejaVuSans-43e" transform="translate(939.794922 0)"/>
     <use xlink:href="#DejaVuSans-434" transform="translate(1000.976562 0)"/>
    </g>
    <!-- ROC кривой -->
    <g style="fill: #262626" transform="translate(215.543875 477.632312) scale(0.1 -0.1)">
     <defs>
      <path id="DejaVuSans-52" d="M 2841 2188 
Q 3044 2119 3236 1894 
Q 3428 1669 3622 1275 
L 4263 0 
L 3584 0 
L 2988 1197 
Q 2756 1666 2539 1819 
Q 2322 1972 1947 1972 
L 1259 1972 
L 1259 0 
L 628 0 
L 628 4666 
L 2053 4666 
Q 2853 4666 3247 4331 
Q 3641 3997 3641 3322 
Q 3641 2881 3436 2590 
Q 3231 2300 2841 2188 
z
M 1259 4147 
L 1259 2491 
L 2053 2491 
Q 2509 2491 2742 2702 
Q 2975 2913 2975 3322 
Q 2975 3731 2742 3939 
Q 2509 4147 2053 4147 
L 1259 4147 
z
" transform="scale(0.015625)"/>
      <path id="DejaVuSans-4f" d="M 2522 4238 
Q 1834 4238 1429 3725 
Q 1025 3213 1025 2328 
Q 1025 1447 1429 934 
Q 1834 422 2522 422 
Q 3209 422 3611 934 
Q 4013 1447 4013 2328 
Q 4013 3213 3611 3725 
Q 3209 4238 2522 4238 
z
M 2522 4750 
Q 3503 4750 4090 4092 
Q 4678 3434 4678 2328 
Q 4678 1225 4090 567 
Q 3503 -91 2522 -91 
Q 1538 -91 948 565 
Q 359 1222 359 2328 
Q 359 3434 948 4092 
Q 1538 4750 2522 4750 
z
" transform="scale(0.015625)"/>
      <path id="DejaVuSans-43a" d="M 581 3500 
L 1153 3500 
L 1153 1856 
L 2775 3500 
L 3481 3500 
L 2144 2147 
L 3653 0 
L 3009 0 
L 1769 1766 
L 1153 1141 
L 1153 0 
L 581 0 
L 581 3500 
z
" transform="scale(0.015625)"/>
      <path id="DejaVuSans-440" d="M 1159 525 
L 1159 -1331 
L 581 -1331 
L 581 3500 
L 1159 3500 
L 1159 2969 
Q 1341 3281 1617 3432 
Q 1894 3584 2278 3584 
Q 2916 3584 3314 3078 
Q 3713 2572 3713 1747 
Q 3713 922 3314 415 
Q 2916 -91 2278 -91 
Q 1894 -91 1617 61 
Q 1341 213 1159 525 
z
M 3116 1747 
Q 3116 2381 2855 2742 
Q 2594 3103 2138 3103 
Q 1681 3103 1420 2742 
Q 1159 2381 1159 1747 
Q 1159 1113 1420 752 
Q 1681 391 2138 391 
Q 2594 391 2855 752 
Q 3116 1113 3116 1747 
z
" transform="scale(0.015625)"/>
      <path id="DejaVuSans-438" d="M 3578 3500 
L 3578 0 
L 3006 0 
L 3006 2809 
L 1319 0 
L 581 0 
L 581 3500 
L 1153 3500 
L 1153 697 
L 2838 3500 
L 3578 3500 
z
" transform="scale(0.015625)"/>
      <path id="DejaVuSans-432" d="M 1156 1613 
L 1156 459 
L 1975 459 
Q 2369 459 2575 607 
Q 2781 756 2781 1038 
Q 2781 1319 2575 1466 
Q 2369 1613 1975 1613 
L 1156 1613 
z
M 1156 3041 
L 1156 2072 
L 1913 2072 
Q 2238 2072 2444 2201 
Q 2650 2331 2650 2563 
Q 2650 2794 2444 2917 
Q 2238 3041 1913 3041 
L 1156 3041 
z
M 581 3500 
L 1950 3500 
Q 2566 3500 2897 3275 
Q 3228 3050 3228 2634 
Q 3228 2313 3059 2123 
Q 2891 1934 2559 1888 
Q 2956 1813 3175 1575 
Q 3394 1338 3394 981 
Q 3394 513 3033 256 
Q 2672 0 2003 0 
L 581 0 
L 581 3500 
z
" transform="scale(0.015625)"/>
      <path id="DejaVuSans-439" d="M 3578 3500 
L 3578 0 
L 3006 0 
L 3006 2809 
L 1319 0 
L 581 0 
L 581 3500 
L 1153 3500 
L 1153 697 
L 2838 3500 
L 3578 3500 
z
M 1102 4833 
L 1471 4833 
Q 1505 4599 1656 4481 
Q 1808 4364 2080 4364 
Q 2349 4364 2499 4480 
Q 2649 4596 2689 4833 
L 3058 4833 
Q 3027 4386 2780 4161 
Q 2533 3936 2080 3936 
Q 1627 3936 1380 4161 
Q 1133 4386 1102 4833 
z
" transform="scale(0.015625)"/>
     </defs>
     <use xlink:href="#DejaVuSans-52"/>
     <use xlink:href="#DejaVuSans-4f" transform="translate(69.482422 0)"/>
     <use xlink:href="#DejaVuSans-43" transform="translate(148.193359 0)"/>
     <use xlink:href="#DejaVuSans-20" transform="translate(218.017578 0)"/>
     <use xlink:href="#DejaVuSans-43a" transform="translate(249.804688 0)"/>
     <use xlink:href="#DejaVuSans-440" transform="translate(310.205078 0)"/>
     <use xlink:href="#DejaVuSans-438" transform="translate(373.681641 0)"/>
     <use xlink:href="#DejaVuSans-432" transform="translate(438.671875 0)"/>
     <use xlink:href="#DejaVuSans-43e" transform="translate(497.607422 0)"/>
     <use xlink:href="#DejaVuSans-439" transform="translate(558.789062 0)"/>
    </g>
   </g>
   <g id="text_16">
    <!-- ROC Кривые Разных Моделей -->
    <g style="fill: #262626" transform="translate(168.332031 17.899062) scale(0.14 -0.14)">
     <defs>
      <path id="DejaVuSans-Bold-4f" d="M 2719 3878 
Q 2169 3878 1866 3472 
Q 1563 3066 1563 2328 
Q 1563 1594 1866 1187 
Q 2169 781 2719 781 
Q 3272 781 3575 1187 
Q 3878 1594 3878 2328 
Q 3878 3066 3575 3472 
Q 3272 3878 2719 3878 
z
M 2719 4750 
Q 3844 4750 4481 4106 
Q 5119 3463 5119 2328 
Q 5119 1197 4481 553 
Q 3844 -91 2719 -91 
Q 1597 -91 958 553 
Q 319 1197 319 2328 
Q 319 3463 958 4106 
Q 1597 4750 2719 4750 
z
" transform="scale(0.015625)"/>
      <path id="DejaVuSans-Bold-43" d="M 4288 256 
Q 3956 84 3597 -3 
Q 3238 -91 2847 -91 
Q 1681 -91 1000 561 
Q 319 1213 319 2328 
Q 319 3447 1000 4098 
Q 1681 4750 2847 4750 
Q 3238 4750 3597 4662 
Q 3956 4575 4288 4403 
L 4288 3438 
Q 3953 3666 3628 3772 
Q 3303 3878 2944 3878 
Q 2300 3878 1931 3465 
Q 1563 3053 1563 2328 
Q 1563 1606 1931 1193 
Q 2300 781 2944 781 
Q 3303 781 3628 887 
Q 3953 994 4288 1222 
L 4288 256 
z
" transform="scale(0.015625)"/>
      <path id="DejaVuSans-Bold-41a" d="M 588 4666 
L 1791 4666 
L 1791 2741 
L 3672 4666 
L 5034 4666 
L 3181 2775 
L 5138 0 
L 3813 0 
L 2409 1988 
L 1791 1356 
L 1791 0 
L 588 0 
L 588 4666 
z
" transform="scale(0.015625)"/>
      <path id="DejaVuSans-Bold-440" d="M 1656 506 
L 1656 -1331 
L 538 -1331 
L 538 3500 
L 1656 3500 
L 1656 2988 
Q 1888 3294 2169 3439 
Q 2450 3584 2816 3584 
Q 3463 3584 3878 3070 
Q 4294 2556 4294 1747 
Q 4294 938 3878 423 
Q 3463 -91 2816 -91 
Q 2450 -91 2169 54 
Q 1888 200 1656 506 
z
M 2400 2772 
Q 2041 2772 1848 2508 
Q 1656 2244 1656 1747 
Q 1656 1250 1848 986 
Q 2041 722 2400 722 
Q 2759 722 2948 984 
Q 3138 1247 3138 1747 
Q 3138 2247 2948 2509 
Q 2759 2772 2400 2772 
z
" transform="scale(0.015625)"/>
      <path id="DejaVuSans-Bold-438" d="M 3947 3500 
L 3947 0 
L 2828 0 
L 2828 1863 
L 1700 0 
L 538 0 
L 538 3500 
L 1656 3500 
L 1656 1638 
L 2784 3500 
L 3947 3500 
z
" transform="scale(0.015625)"/>
      <path id="DejaVuSans-Bold-432" d="M 2184 2181 
Q 2378 2181 2478 2261 
Q 2578 2341 2578 2497 
Q 2578 2653 2478 2731 
Q 2378 2809 2184 2809 
L 1656 2809 
L 1656 2181 
L 2184 2181 
z
M 2222 700 
Q 2469 700 2594 798 
Q 2719 897 2719 1094 
Q 2719 1288 2594 1384 
Q 2469 1481 2222 1481 
L 1656 1481 
L 1656 700 
L 2222 700 
z
M 538 3500 
L 2141 3500 
Q 2919 3500 3267 3279 
Q 3616 3059 3616 2575 
Q 3616 2319 3487 2139 
Q 3359 1959 3119 1872 
Q 3428 1788 3598 1561 
Q 3769 1334 3769 1003 
Q 3769 497 3403 248 
Q 3038 0 2294 0 
L 538 0 
L 538 3500 
z
" transform="scale(0.015625)"/>
      <path id="DejaVuSans-Bold-44b" d="M 4154 3500 
L 5272 3500 
L 5272 0 
L 4154 0 
L 4154 3500 
z
M 2719 1094 
Q 2719 1291 2594 1388 
Q 2472 1481 2222 1481 
L 1656 1481 
L 1656 700 
L 2222 700 
Q 2469 700 2594 800 
Q 2719 897 2719 1094 
z
M 538 3500 
L 1656 3500 
L 1656 2172 
L 2291 2172 
Q 3000 2172 3381 1913 
Q 3766 1650 3766 1081 
Q 3766 513 3381 256 
Q 3000 0 2291 0 
L 538 0 
L 538 3500 
z
" transform="scale(0.015625)"/>
      <path id="DejaVuSans-Bold-435" d="M 4031 1759 
L 4031 1441 
L 1416 1441 
Q 1456 1047 1700 850 
Q 1944 653 2381 653 
Q 2734 653 3104 758 
Q 3475 863 3866 1075 
L 3866 213 
Q 3469 63 3072 -14 
Q 2675 -91 2278 -91 
Q 1328 -91 801 392 
Q 275 875 275 1747 
Q 275 2603 792 3093 
Q 1309 3584 2216 3584 
Q 3041 3584 3536 3087 
Q 4031 2591 4031 1759 
z
M 2881 2131 
Q 2881 2450 2695 2645 
Q 2509 2841 2209 2841 
Q 1884 2841 1681 2658 
Q 1478 2475 1428 2131 
L 2881 2131 
z
" transform="scale(0.015625)"/>
      <path id="DejaVuSans-Bold-420" d="M 588 4666 
L 2584 4666 
Q 3475 4666 3951 4270 
Q 4428 3875 4428 3144 
Q 4428 2409 3951 2014 
Q 3475 1619 2584 1619 
L 1791 1619 
L 1791 0 
L 588 0 
L 588 4666 
z
M 1791 3794 
L 1791 2491 
L 2456 2491 
Q 2806 2491 2997 2661 
Q 3188 2831 3188 3144 
Q 3188 3456 2997 3625 
Q 2806 3794 2456 3794 
L 1791 3794 
z
" transform="scale(0.015625)"/>
      <path id="DejaVuSans-Bold-430" d="M 2106 1575 
Q 1756 1575 1579 1456 
Q 1403 1338 1403 1106 
Q 1403 894 1545 773 
Q 1688 653 1941 653 
Q 2256 653 2472 879 
Q 2688 1106 2688 1447 
L 2688 1575 
L 2106 1575 
z
M 3816 1997 
L 3816 0 
L 2688 0 
L 2688 519 
Q 2463 200 2181 54 
Q 1900 -91 1497 -91 
Q 953 -91 614 226 
Q 275 544 275 1050 
Q 275 1666 698 1953 
Q 1122 2241 2028 2241 
L 2688 2241 
L 2688 2328 
Q 2688 2594 2478 2717 
Q 2269 2841 1825 2841 
Q 1466 2841 1156 2769 
Q 847 2697 581 2553 
L 581 3406 
Q 941 3494 1303 3539 
Q 1666 3584 2028 3584 
Q 2975 3584 3395 3211 
Q 3816 2838 3816 1997 
z
" transform="scale(0.015625)"/>
      <path id="DejaVuSans-Bold-437" d="M 900 2181 
L 1413 2181 
Q 1872 2181 2039 2281 
Q 2206 2381 2206 2519 
Q 2206 2841 1469 2841 
Q 853 2841 472 2625 
L 472 3434 
Q 1041 3584 1713 3584 
Q 2500 3584 2862 3361 
Q 3225 3138 3225 2666 
Q 3225 2047 2541 1888 
Q 3313 1697 3313 994 
Q 3313 453 2888 181 
Q 2463 -91 1553 -91 
Q 875 -91 313 84 
L 313 947 
Q 1013 653 1428 653 
Q 1884 653 2089 776 
Q 2294 900 2294 1056 
Q 2294 1491 1394 1491 
L 900 1491 
L 900 2181 
z
" transform="scale(0.015625)"/>
      <path id="DejaVuSans-Bold-43d" d="M 538 3500 
L 1656 3500 
L 1656 2169 
L 2766 2169 
L 2766 3500 
L 3884 3500 
L 3884 0 
L 2766 0 
L 2766 1478 
L 1656 1478 
L 1656 0 
L 538 0 
L 538 3500 
z
" transform="scale(0.015625)"/>
      <path id="DejaVuSans-Bold-445" d="M 1422 1791 
L 159 3500 
L 1344 3500 
L 2059 2463 
L 2784 3500 
L 3969 3500 
L 2706 1797 
L 4031 0 
L 2847 0 
L 2059 1106 
L 1281 0 
L 97 0 
L 1422 1791 
z
" transform="scale(0.015625)"/>
      <path id="DejaVuSans-Bold-41c" d="M 588 4666 
L 2119 4666 
L 3181 2169 
L 4250 4666 
L 5778 4666 
L 5778 0 
L 4641 0 
L 4641 3413 
L 3566 897 
L 2803 897 
L 1728 3413 
L 1728 0 
L 588 0 
L 588 4666 
z
" transform="scale(0.015625)"/>
      <path id="DejaVuSans-Bold-43e" d="M 2203 2784 
Q 1831 2784 1636 2517 
Q 1441 2250 1441 1747 
Q 1441 1244 1636 976 
Q 1831 709 2203 709 
Q 2569 709 2762 976 
Q 2956 1244 2956 1747 
Q 2956 2250 2762 2517 
Q 2569 2784 2203 2784 
z
M 2203 3584 
Q 3106 3584 3614 3096 
Q 4122 2609 4122 1747 
Q 4122 884 3614 396 
Q 3106 -91 2203 -91 
Q 1297 -91 786 396 
Q 275 884 275 1747 
Q 275 2609 786 3096 
Q 1297 3584 2203 3584 
z
" transform="scale(0.015625)"/>
      <path id="DejaVuSans-Bold-434" d="M 547 800 
Q 903 919 1053 1314 
Q 1203 1709 1203 2838 
L 1203 3500 
L 4228 3500 
L 4228 800 
L 4809 800 
L 4809 -884 
L 4009 -884 
L 4009 0 
L 1159 0 
L 1159 -884 
L 359 -884 
L 359 800 
L 547 800 
z
M 3109 2700 
L 2322 2700 
L 2322 2603 
Q 2322 1456 2063 800 
L 3109 800 
L 3109 2700 
z
" transform="scale(0.015625)"/>
      <path id="DejaVuSans-Bold-43b" d="M 353 0 
L 353 800 
Q 906 913 1031 1278 
Q 1125 1556 1125 2928 
L 1125 3500 
L 4150 3500 
L 4150 0 
L 3031 0 
L 3031 2700 
L 2244 2700 
L 2244 2584 
Q 2244 1213 2028 813 
Q 1591 0 353 0 
z
" transform="scale(0.015625)"/>
      <path id="DejaVuSans-Bold-439" d="M 3947 3500 
L 3947 0 
L 2828 0 
L 2828 1863 
L 1700 0 
L 538 0 
L 538 3500 
L 1656 3500 
L 1656 1638 
L 2784 3500 
L 3947 3500 
z
M 1190 4891 
L 1637 4891 
Q 1671 4672 1826 4556 
Q 1981 4441 2240 4441 
Q 2499 4441 2654 4556 
Q 2809 4672 2843 4891 
L 3290 4891 
Q 3271 4441 2999 4202 
Q 2728 3963 2240 3963 
Q 1753 3963 1481 4202 
Q 1209 4441 1190 4891 
z
" transform="scale(0.015625)"/>
     </defs>
     <use xlink:href="#DejaVuSans-Bold-52"/>
     <use xlink:href="#DejaVuSans-Bold-4f" transform="translate(77.001953 0)"/>
     <use xlink:href="#DejaVuSans-Bold-43" transform="translate(162.011719 0)"/>
     <use xlink:href="#DejaVuSans-Bold-20" transform="translate(235.400391 0)"/>
     <use xlink:href="#DejaVuSans-Bold-41a" transform="translate(270.214844 0)"/>
     <use xlink:href="#DejaVuSans-Bold-440" transform="translate(351.953125 0)"/>
     <use xlink:href="#DejaVuSans-Bold-438" transform="translate(423.535156 0)"/>
     <use xlink:href="#DejaVuSans-Bold-432" transform="translate(493.603516 0)"/>
     <use xlink:href="#DejaVuSans-Bold-44b" transform="translate(556.884766 0)"/>
     <use xlink:href="#DejaVuSans-Bold-435" transform="translate(647.314453 0)"/>
     <use xlink:href="#DejaVuSans-Bold-20" transform="translate(715.136719 0)"/>
     <use xlink:href="#DejaVuSans-Bold-420" transform="translate(749.951172 0)"/>
     <use xlink:href="#DejaVuSans-Bold-430" transform="translate(823.242188 0)"/>
     <use xlink:href="#DejaVuSans-Bold-437" transform="translate(890.722656 0)"/>
     <use xlink:href="#DejaVuSans-Bold-43d" transform="translate(948.828125 0)"/>
     <use xlink:href="#DejaVuSans-Bold-44b" transform="translate(1017.919922 0)"/>
     <use xlink:href="#DejaVuSans-Bold-445" transform="translate(1108.349609 0)"/>
     <use xlink:href="#DejaVuSans-Bold-20" transform="translate(1172.851562 0)"/>
     <use xlink:href="#DejaVuSans-Bold-41c" transform="translate(1207.666016 0)"/>
     <use xlink:href="#DejaVuSans-Bold-43e" transform="translate(1307.177734 0)"/>
     <use xlink:href="#DejaVuSans-Bold-434" transform="translate(1375.878906 0)"/>
     <use xlink:href="#DejaVuSans-Bold-435" transform="translate(1456.640625 0)"/>
     <use xlink:href="#DejaVuSans-Bold-43b" transform="translate(1524.462891 0)"/>
     <use xlink:href="#DejaVuSans-Bold-435" transform="translate(1597.705078 0)"/>
     <use xlink:href="#DejaVuSans-Bold-439" transform="translate(1665.527344 0)"/>
    </g>
   </g>
   <g id="legend_1">
    <g id="patch_8">
     <path d="M 386.386875 530.119062 
L 532.436875 530.119062 
Q 534.436875 530.119062 534.436875 528.119062 
L 534.436875 455.728437 
Q 534.436875 453.728437 532.436875 453.728437 
L 386.386875 453.728437 
Q 384.386875 453.728437 384.386875 455.728437 
L 384.386875 528.119062 
Q 384.386875 530.119062 386.386875 530.119062 
z
" style="fill: #4d4d4d; opacity: 0.5; stroke: #4d4d4d; stroke-linejoin: miter"/>
    </g>
    <g id="patch_9">
     <path d="M 384.386875 528.119062 
L 530.436875 528.119062 
Q 532.436875 528.119062 532.436875 526.119062 
L 532.436875 453.728437 
Q 532.436875 451.728437 530.436875 451.728437 
L 384.386875 451.728437 
Q 382.386875 451.728437 382.386875 453.728437 
L 382.386875 526.119062 
Q 382.386875 528.119062 384.386875 528.119062 
z
" style="fill: #ffffff; opacity: 0.95; stroke: #cccccc; stroke-linejoin: miter"/>
    </g>
    <g id="line2d_34">
     <path d="M 386.386875 459.826875 
L 396.386875 459.826875 
L 406.386875 459.826875 
" style="fill: none; stroke: #2e7d32; stroke-opacity: 0.9; stroke-width: 2.5; stroke-linecap: round"/>
    </g>
    <g id="text_17">
     <!-- Идеальная (AUC=1.0) -->
     <g style="fill: #262626" transform="translate(414.386875 463.326875) scale(0.1 -0.1)">
      <defs>
       <path id="DejaVuSans-418" d="M 4159 4666 
L 4159 0 
L 3547 0 
L 3547 3903 
L 1478 0 
L 628 0 
L 628 4666 
L 1241 4666 
L 1241 763 
L 3309 4666 
L 4159 4666 
z
" transform="scale(0.015625)"/>
       <path id="DejaVuSans-435" d="M 3597 1894 
L 3597 1613 
L 953 1613 
Q 991 1019 1311 708 
Q 1631 397 2203 397 
Q 2534 397 2845 478 
Q 3156 559 3463 722 
L 3463 178 
Q 3153 47 2828 -22 
Q 2503 -91 2169 -91 
Q 1331 -91 842 396 
Q 353 884 353 1716 
Q 353 2575 817 3079 
Q 1281 3584 2069 3584 
Q 2775 3584 3186 3129 
Q 3597 2675 3597 1894 
z
M 3022 2063 
Q 3016 2534 2758 2815 
Q 2500 3097 2075 3097 
Q 1594 3097 1305 2825 
Q 1016 2553 972 2059 
L 3022 2063 
z
" transform="scale(0.015625)"/>
       <path id="DejaVuSans-43d" d="M 581 3500 
L 1159 3500 
L 1159 2072 
L 3025 2072 
L 3025 3500 
L 3603 3500 
L 3603 0 
L 3025 0 
L 3025 1613 
L 1159 1613 
L 1159 0 
L 581 0 
L 581 3500 
z
" transform="scale(0.015625)"/>
       <path id="DejaVuSans-44f" d="M 1181 2491 
Q 1181 2231 1381 2084 
Q 1581 1938 1953 1938 
L 2728 1938 
L 2728 3041 
L 1953 3041 
Q 1581 3041 1381 2897 
Q 1181 2753 1181 2491 
z
M 363 0 
L 1431 1534 
Q 1069 1616 828 1830 
Q 588 2044 588 2491 
Q 588 2997 923 3248 
Q 1259 3500 1938 3500 
L 3306 3500 
L 3306 0 
L 2728 0 
L 2728 1478 
L 2013 1478 
L 981 0 
L 363 0 
z
" transform="scale(0.015625)"/>
       <path id="DejaVuSans-28" d="M 1984 4856 
Q 1566 4138 1362 3434 
Q 1159 2731 1159 2009 
Q 1159 1288 1364 580 
Q 1569 -128 1984 -844 
L 1484 -844 
Q 1016 -109 783 600 
Q 550 1309 550 2009 
Q 550 2706 781 3412 
Q 1013 4119 1484 4856 
L 1984 4856 
z
" transform="scale(0.015625)"/>
       <path id="DejaVuSans-29" d="M 513 4856 
L 1013 4856 
Q 1481 4119 1714 3412 
Q 1947 2706 1947 2009 
Q 1947 1309 1714 600 
Q 1481 -109 1013 -844 
L 513 -844 
Q 928 -128 1133 580 
Q 1338 1288 1338 2009 
Q 1338 2731 1133 3434 
Q 928 4138 513 4856 
z
" transform="scale(0.015625)"/>
      </defs>
      <use xlink:href="#DejaVuSans-418"/>
      <use xlink:href="#DejaVuSans-434" transform="translate(74.804688 0)"/>
      <use xlink:href="#DejaVuSans-435" transform="translate(143.945312 0)"/>
      <use xlink:href="#DejaVuSans-430" transform="translate(205.46875 0)"/>
      <use xlink:href="#DejaVuSans-43b" transform="translate(266.748047 0)"/>
      <use xlink:href="#DejaVuSans-44c" transform="translate(330.664062 0)"/>
      <use xlink:href="#DejaVuSans-43d" transform="translate(389.599609 0)"/>
      <use xlink:href="#DejaVuSans-430" transform="translate(454.980469 0)"/>
      <use xlink:href="#DejaVuSans-44f" transform="translate(516.259766 0)"/>
      <use xlink:href="#DejaVuSans-20" transform="translate(576.416016 0)"/>
      <use xlink:href="#DejaVuSans-28" transform="translate(608.203125 0)"/>
      <use xlink:href="#DejaVuSans-41" transform="translate(647.216797 0)"/>
      <use xlink:href="#DejaVuSans-55" transform="translate(715.625 0)"/>
      <use xlink:href="#DejaVuSans-43" transform="translate(788.818359 0)"/>
      <use xlink:href="#DejaVuSans-3d" transform="translate(858.642578 0)"/>
      <use xlink:href="#DejaVuSans-31" transform="translate(942.431641 0)"/>
      <use xlink:href="#DejaVuSans-2e" transform="translate(1006.054688 0)"/>
      <use xlink:href="#DejaVuSans-30" transform="translate(1037.841797 0)"/>
      <use xlink:href="#DejaVuSans-29" transform="translate(1101.464844 0)"/>
     </g>
    </g>
    <g id="line2d_35">
     <path d="M 386.386875 474.505 
L 396.386875 474.505 
L 406.386875 474.505 
" style="fill: none; stroke: #1565c0; stroke-opacity: 0.9; stroke-width: 2.5; stroke-linecap: round"/>
    </g>
    <g id="text_18">
     <!-- Хорошая (AUC=0.87) -->
     <g style="fill: #262626" transform="translate(414.386875 478.005) scale(0.1 -0.1)">
      <defs>
       <path id="DejaVuSans-425" d="M 403 4666 
L 1081 4666 
L 2241 2931 
L 3406 4666 
L 4084 4666 
L 2584 2425 
L 4184 0 
L 3506 0 
L 2194 1984 
L 872 0 
L 191 0 
L 1856 2491 
L 403 4666 
z
" transform="scale(0.015625)"/>
       <path id="DejaVuSans-448" d="M 3216 459 
L 4697 459 
L 4697 3500 
L 5275 3500 
L 5275 0 
L 581 0 
L 581 3500 
L 1159 3500 
L 1159 459 
L 2638 459 
L 2638 3500 
L 3216 3500 
L 3216 459 
z
" transform="scale(0.015625)"/>
       <path id="DejaVuSans-37" d="M 525 4666 
L 3525 4666 
L 3525 4397 
L 1831 0 
L 1172 0 
L 2766 4134 
L 525 4134 
L 525 4666 
z
" transform="scale(0.015625)"/>
      </defs>
      <use xlink:href="#DejaVuSans-425"/>
      <use xlink:href="#DejaVuSans-43e" transform="translate(68.505859 0)"/>
      <use xlink:href="#DejaVuSans-440" transform="translate(129.6875 0)"/>
      <use xlink:href="#DejaVuSans-43e" transform="translate(193.164062 0)"/>
      <use xlink:href="#DejaVuSans-448" transform="translate(254.345703 0)"/>
      <use xlink:href="#DejaVuSans-430" transform="translate(345.849609 0)"/>
      <use xlink:href="#DejaVuSans-44f" transform="translate(407.128906 0)"/>
      <use xlink:href="#DejaVuSans-20" transform="translate(467.285156 0)"/>
      <use xlink:href="#DejaVuSans-28" transform="translate(499.072266 0)"/>
      <use xlink:href="#DejaVuSans-41" transform="translate(538.085938 0)"/>
      <use xlink:href="#DejaVuSans-55" transform="translate(606.494141 0)"/>
      <use xlink:href="#DejaVuSans-43" transform="translate(679.6875 0)"/>
      <use xlink:href="#DejaVuSans-3d" transform="translate(749.511719 0)"/>
      <use xlink:href="#DejaVuSans-30" transform="translate(833.300781 0)"/>
      <use xlink:href="#DejaVuSans-2e" transform="translate(896.923828 0)"/>
      <use xlink:href="#DejaVuSans-38" transform="translate(928.710938 0)"/>
      <use xlink:href="#DejaVuSans-37" transform="translate(992.333984 0)"/>
      <use xlink:href="#DejaVuSans-29" transform="translate(1055.957031 0)"/>
     </g>
    </g>
    <g id="line2d_36">
     <path d="M 386.386875 489.183125 
L 396.386875 489.183125 
L 406.386875 489.183125 
" style="fill: none; stroke: #ef6c00; stroke-opacity: 0.8; stroke-width: 2; stroke-linecap: round"/>
    </g>
    <g id="text_19">
     <!-- Средняя (AUC=0.65) -->
     <g style="fill: #262626" transform="translate(414.386875 492.683125) scale(0.1 -0.1)">
      <defs>
       <path id="DejaVuSans-421" d="M 4122 4306 
L 4122 3641 
Q 3803 3938 3442 4084 
Q 3081 4231 2675 4231 
Q 1875 4231 1450 3742 
Q 1025 3253 1025 2328 
Q 1025 1406 1450 917 
Q 1875 428 2675 428 
Q 3081 428 3442 575 
Q 3803 722 4122 1019 
L 4122 359 
Q 3791 134 3420 21 
Q 3050 -91 2638 -91 
Q 1578 -91 968 557 
Q 359 1206 359 2328 
Q 359 3453 968 4101 
Q 1578 4750 2638 4750 
Q 3056 4750 3426 4639 
Q 3797 4528 4122 4306 
z
" transform="scale(0.015625)"/>
       <path id="DejaVuSans-35" d="M 691 4666 
L 3169 4666 
L 3169 4134 
L 1269 4134 
L 1269 2991 
Q 1406 3038 1543 3061 
Q 1681 3084 1819 3084 
Q 2600 3084 3056 2656 
Q 3513 2228 3513 1497 
Q 3513 744 3044 326 
Q 2575 -91 1722 -91 
Q 1428 -91 1123 -41 
Q 819 9 494 109 
L 494 744 
Q 775 591 1075 516 
Q 1375 441 1709 441 
Q 2250 441 2565 725 
Q 2881 1009 2881 1497 
Q 2881 1984 2565 2268 
Q 2250 2553 1709 2553 
Q 1456 2553 1204 2497 
Q 953 2441 691 2322 
L 691 4666 
z
" transform="scale(0.015625)"/>
      </defs>
      <use xlink:href="#DejaVuSans-421"/>
      <use xlink:href="#DejaVuSans-440" transform="translate(69.824219 0)"/>
      <use xlink:href="#DejaVuSans-435" transform="translate(133.300781 0)"/>
      <use xlink:href="#DejaVuSans-434" transform="translate(194.824219 0)"/>
      <use xlink:href="#DejaVuSans-43d" transform="translate(263.964844 0)"/>
      <use xlink:href="#DejaVuSans-44f" transform="translate(329.345703 0)"/>
      <use xlink:href="#DejaVuSans-44f" transform="translate(389.501953 0)"/>
      <use xlink:href="#DejaVuSans-20" transform="translate(449.658203 0)"/>
      <use xlink:href="#DejaVuSans-28" transform="translate(481.445312 0)"/>
      <use xlink:href="#DejaVuSans-41" transform="translate(520.458984 0)"/>
      <use xlink:href="#DejaVuSans-55" transform="translate(588.867188 0)"/>
      <use xlink:href="#DejaVuSans-43" transform="translate(662.060547 0)"/>
      <use xlink:href="#DejaVuSans-3d" transform="translate(731.884766 0)"/>
      <use xlink:href="#DejaVuSans-30" transform="translate(815.673828 0)"/>
      <use xlink:href="#DejaVuSans-2e" transform="translate(879.296875 0)"/>
      <use xlink:href="#DejaVuSans-36" transform="translate(911.083984 0)"/>
      <use xlink:href="#DejaVuSans-35" transform="translate(974.707031 0)"/>
      <use xlink:href="#DejaVuSans-29" transform="translate(1038.330078 0)"/>
     </g>
    </g>
    <g id="line2d_37">
     <path d="M 386.386875 503.86125 
L 396.386875 503.86125 
L 406.386875 503.86125 
" style="fill: none; stroke-dasharray: 7.4,3.2; stroke-dashoffset: 0; stroke: #c62828; stroke-opacity: 0.7; stroke-width: 2"/>
    </g>
    <g id="text_20">
     <!-- Слабая (AUC=0.50) -->
     <g style="fill: #262626" transform="translate(414.386875 507.36125) scale(0.1 -0.1)">
      <defs>
       <path id="DejaVuSans-431" d="M 1991 3584 
Q 2741 3584 3169 3096 
Q 3597 2609 3597 1747 
Q 3597 888 3169 398 
Q 2741 -91 1991 -91 
Q 1238 -91 822 384 
Q 406 859 384 1747 
L 366 2463 
Q 350 2834 350 2963 
Q 350 3463 531 3831 
Q 816 4409 1308 4659 
Q 1800 4909 2625 4916 
Q 3006 4919 3175 4972 
L 3334 4516 
Q 3181 4453 3041 4450 
L 2259 4397 
Q 1866 4369 1628 4231 
Q 1006 3866 947 3388 
L 925 3213 
Q 1331 3584 1991 3584 
z
M 1991 3097 
Q 1528 3097 1259 2736 
Q 991 2375 991 1747 
Q 991 1119 1258 758 
Q 1525 397 1991 397 
Q 2450 397 2719 759 
Q 2988 1122 2988 1747 
Q 2988 2369 2719 2733 
Q 2450 3097 1991 3097 
z
" transform="scale(0.015625)"/>
      </defs>
      <use xlink:href="#DejaVuSans-421"/>
      <use xlink:href="#DejaVuSans-43b" transform="translate(69.824219 0)"/>
      <use xlink:href="#DejaVuSans-430" transform="translate(133.740234 0)"/>
      <use xlink:href="#DejaVuSans-431" transform="translate(195.019531 0)"/>
      <use xlink:href="#DejaVuSans-430" transform="translate(256.689453 0)"/>
      <use xlink:href="#DejaVuSans-44f" transform="translate(317.96875 0)"/>
      <use xlink:href="#DejaVuSans-20" transform="translate(378.125 0)"/>
      <use xlink:href="#DejaVuSans-28" transform="translate(409.912109 0)"/>
      <use xlink:href="#DejaVuSans-41" transform="translate(448.925781 0)"/>
      <use xlink:href="#DejaVuSans-55" transform="translate(517.333984 0)"/>
      <use xlink:href="#DejaVuSans-43" transform="translate(590.527344 0)"/>
      <use xlink:href="#DejaVuSans-3d" transform="translate(660.351562 0)"/>
      <use xlink:href="#DejaVuSans-30" transform="translate(744.140625 0)"/>
      <use xlink:href="#DejaVuSans-2e" transform="translate(807.763672 0)"/>
      <use xlink:href="#DejaVuSans-35" transform="translate(839.550781 0)"/>
      <use xlink:href="#DejaVuSans-30" transform="translate(903.173828 0)"/>
      <use xlink:href="#DejaVuSans-29" transform="translate(966.796875 0)"/>
     </g>
    </g>
    <g id="line2d_38">
     <path d="M 386.386875 518.539375 
L 396.386875 518.539375 
L 406.386875 518.539375 
" style="fill: none; stroke-dasharray: 7.4,3.2; stroke-dashoffset: 0; stroke: #999999; stroke-opacity: 0.5; stroke-width: 2"/>
    </g>
    <g id="text_21">
     <!-- Случайная (AUC=0.5) -->
     <g style="fill: #262626" transform="translate(414.386875 522.039375) scale(0.1 -0.1)">
      <defs>
       <path id="DejaVuSans-443" d="M 2059 -325 
Q 1816 -950 1584 -1140 
Q 1353 -1331 966 -1331 
L 506 -1331 
L 506 -850 
L 844 -850 
Q 1081 -850 1212 -737 
Q 1344 -625 1503 -206 
L 1606 56 
L 191 3500 
L 800 3500 
L 1894 763 
L 2988 3500 
L 3597 3500 
L 2059 -325 
z
" transform="scale(0.015625)"/>
       <path id="DejaVuSans-447" d="M 2625 0 
L 2625 1472 
L 1553 1472 
Q 1075 1472 756 1769 
Q 469 2038 469 2613 
L 469 3500 
L 1044 3500 
L 1044 2666 
Q 1044 2300 1206 2116 
Q 1372 1931 1697 1931 
L 2625 1931 
L 2625 3500 
L 3200 3500 
L 3200 0 
L 2625 0 
z
" transform="scale(0.015625)"/>
      </defs>
      <use xlink:href="#DejaVuSans-421"/>
      <use xlink:href="#DejaVuSans-43b" transform="translate(69.824219 0)"/>
      <use xlink:href="#DejaVuSans-443" transform="translate(133.740234 0)"/>
      <use xlink:href="#DejaVuSans-447" transform="translate(192.919922 0)"/>
      <use xlink:href="#DejaVuSans-430" transform="translate(252.001953 0)"/>
      <use xlink:href="#DejaVuSans-439" transform="translate(313.28125 0)"/>
      <use xlink:href="#DejaVuSans-43d" transform="translate(378.271484 0)"/>
      <use xlink:href="#DejaVuSans-430" transform="translate(443.652344 0)"/>
      <use xlink:href="#DejaVuSans-44f" transform="translate(504.931641 0)"/>
      <use xlink:href="#DejaVuSans-20" transform="translate(565.087891 0)"/>
      <use xlink:href="#DejaVuSans-28" transform="translate(596.875 0)"/>
      <use xlink:href="#DejaVuSans-41" transform="translate(635.888672 0)"/>
      <use xlink:href="#DejaVuSans-55" transform="translate(704.296875 0)"/>
      <use xlink:href="#DejaVuSans-43" transform="translate(777.490234 0)"/>
      <use xlink:href="#DejaVuSans-3d" transform="translate(847.314453 0)"/>
      <use xlink:href="#DejaVuSans-30" transform="translate(931.103516 0)"/>
      <use xlink:href="#DejaVuSans-2e" transform="translate(994.726562 0)"/>
      <use xlink:href="#DejaVuSans-35" transform="translate(1026.513672 0)"/>
      <use xlink:href="#DejaVuSans-29" transform="translate(1090.136719 0)"/>
     </g>
    </g>
   </g>
  </g>
 </g>
 <defs>
  <clipPath id="p5f548d4d49">
   <rect x="42.216875" y="37.899062" width="495.22" height="495.22"/>
  </clipPath>
 </defs>
</svg>
